999
DXF created from QGIS
  0
SECTION
  2
HEADER
  9
$ACADVER
  1
AC1018
  9
$EXTMIN
 10
4869508.29936489183455706
 20
2055036.9162819916382432
 30
0.0
  9
$EXTMAX
 10
4883710.43864133395254612
 20
2065015.00389275280758739
 30
0.0
  9
$LTSCALE
 40
1.0
  9
$PDMODE
 70
    33
  9
$PDSIZE
 40
     1
  9
$PSLTSCALE
 70
     0
  9
$HANDSEED
  5
9999999
  9
$DWGCODEPAGE
  3
ANSI_1252
  0
ENDSEC
  0
SECTION
  2
TABLES
  0
TABLE
  2
LTYPE
  5
64
100
AcDbSymbolTable
 70
     5
  0
LTYPE
  5
65
100
AcDbSymbolTableRecord
100
AcDbLinetypeTableRecord
  2
ByLayer
 70
    64
  3
Defaultstyle
 72
    65
 73
     0
 40
0.0
  0
LTYPE
  5
66
100
AcDbSymbolTableRecord
100
AcDbLinetypeTableRecord
  2
ByBlock
 70
    64
  3
Defaultstyle
 72
    65
 73
     0
 40
0.0
  0
LTYPE
  5
67
100
AcDbSymbolTableRecord
100
AcDbLinetypeTableRecord
  2
CONTINUOUS
 70
    64
  3
Defaultstyle
 72
    65
 73
     0
 40
0.0
  0
LTYPE
  5
68
100
AcDbSymbolTableRecord
100
AcDbLinetypeTableRecord
  2
DASH
 70
    64
  3

 72
    65
 73
     2
 40
2600.0
 49
2000.0
 74
     0
 49
-600.0
 74
     0
  0
LTYPE
  5
69
100
AcDbSymbolTableRecord
100
AcDbLinetypeTableRecord
  2
DOT
 70
    64
  3

 72
    65
 73
     2
 40
1200.0
 49
600.0
 74
     0
 49
-600.0
 74
     0
  0
LTYPE
  5
6a
100
AcDbSymbolTableRecord
100
AcDbLinetypeTableRecord
  2
DASHDOT
 70
    64
  3

 72
    65
 73
     4
 40
3800.0
 49
2000.0
 74
     0
 49
-600.0
 74
     0
 49
600.0
 74
     0
 49
-600.0
 74
     0
  0
LTYPE
  5
6b
100
AcDbSymbolTableRecord
100
AcDbLinetypeTableRecord
  2
DASHDOTDOT
 70
    64
  3

 72
    65
 73
     6
 40
5000.0
 49
2000.0
 74
     0
 49
-600.0
 74
     0
 49
600.0
 74
     0
 49
-600.0
 74
     0
 49
600.0
 74
     0
 49
-600.0
 74
     0
  0
ENDTAB
  0
TABLE
  2
BLOCK_RECORD
  5
6c
100
AcDbSymbolTable
 70
     0
  0
BLOCK_RECORD
  5
6d
100
AcDbSymbolTableRecord
100
AcDbBlockTableRecord
  2
*Model_Space
  0
BLOCK_RECORD
  5
6e
100
AcDbSymbolTableRecord
100
AcDbBlockTableRecord
  2
*Paper_Space
  0
BLOCK_RECORD
  5
6f
100
AcDbSymbolTableRecord
100
AcDbBlockTableRecord
  2
*Paper_Space0
  0
ENDTAB
  0
TABLE
  2
APPID
  5
70
100
AcDbSymbolTable
 70
     1
  0
APPID
  5
71
100
AcDbSymbolTableRecord
100
AcDbRegAppTableRecord
  2
ACAD
 70
     0
  0
ENDTAB
  0
TABLE
  2
VIEW
  5
72
100
AcDbSymbolTable
 70
     0
  0
ENDTAB
  0
TABLE
  2
UCS
  5
73
100
AcDbSymbolTable
 70
     0
  0
ENDTAB
  0
TABLE
  2
VPORT
  5
74
100
AcDbSymbolTable
  0
VPORT
  5
75
100
AcDbSymbolTableRecord
100
AcDbViewportTableRecord
  2
*ACTIVE
 70
     0
 10
0.0
 20
0.0
 11
1.0
 21
1.0
 12
0.0
 22
0.0
 13
0.0
 23
0.0
 14
1.0
 24
1.0
 15
1.0
 25
1.0
 16
0.0
 26
0.0
 36
1.0
 17
4876609.36900311335921288
 27
2060025.96008737222291529
 40
9978.08761076116934419
 41
1.42333278985498102
 42
50.0
 43
0.0
 44
0.0
 50
0.0
 51
0.0
 71
     0
 72
   100
 73
     1
 74
     1
 75
     0
 76
     0
 77
     0
 78
     0
281
     0
 65
     1
110
0.0
120
0.0
130
0.0
111
1.0
121
0.0
131
0.0
112
0.0
122
1.0
132
0.0
 79
     0
146
0.0
 70
     0
  0
ENDTAB
  0
TABLE
  2
DIMSTYLE
  5
76
100
AcDbSymbolTable
100
AcDbDimStyleTable
 70
     0
  0
ENDTAB
  0
TABLE
  2
LAYER
  5
77
100
AcDbSymbolTable
 70
     3
  0
LAYER
  5
78
100
AcDbSymbolTableRecord
100
AcDbLayerTableRecord
  2
0
 70
    64
 62
     1
  6
CONTINUOUS
390
f
  0
LAYER
  5
79
100
AcDbSymbolTableRecord
100
AcDbLayerTableRecord
  2
UPME_LineaTransmisionBogotaSplitNodoZ3D
 70
    64
 62
     1
  6
CONTINUOUS
390
f
  0
LAYER
  5
7a
100
AcDbSymbolTableRecord
100
AcDbLayerTableRecord
  2
UPME_LineaTransmisionBogota3D
 70
    64
 62
     1
  6
CONTINUOUS
390
f
  0
ENDTAB
  0
TABLE
  2
STYLE
  5
7b
100
AcDbSymbolTable
 70
     1
  0
STYLE
  5
7c
100
AcDbSymbolTableRecord
100
AcDbTextStyleTableRecord
  2
STANDARD
 70
    64
 40
0.0
 41
1.0
 50
0.0
 71
     0
 42
5.0
  3
romans.shx
  4

  0
ENDTAB
  0
ENDSEC
  0
SECTION
  2
BLOCKS
  0
BLOCK
  5
7d
330
6d
100
AcDbEntity
  8
0
100
AcDbBlockBegin
  2
*Model_Space
 70
     0
 10
0.0
 20
0.0
 30
0.0
  3
*Model_Space
  1

  0
ENDBLK
  5
7e
100
AcDbEntity
  8
0
100
AcDbBlockEnd
  0
BLOCK
  5
7f
330
6e
100
AcDbEntity
  8
0
100
AcDbBlockBegin
  2
*Paper_Space
 70
     0
 10
0.0
 20
0.0
 30
0.0
  3
*Paper_Space
  1

  0
ENDBLK
  5
80
100
AcDbEntity
  8
0
100
AcDbBlockEnd
  0
BLOCK
  5
81
330
6f
100
AcDbEntity
  8
0
100
AcDbBlockBegin
  2
*Paper_Space0
 70
     0
 10
0.0
 20
0.0
 30
0.0
  3
*Paper_Space0
  1

  0
ENDBLK
  5
82
100
AcDbEntity
  8
0
100
AcDbBlockEnd
  0
ENDSEC
  0
SECTION
  2
ENTITIES
  0
POLYLINE
  5
83
330
6d
100
AcDbEntity
  8
UPME_LineaTransmisionBogota3D
  6
CONTINUOUS
420
     0
100
AcDb3dPolyline
 10
0.0
 20
0.0
 30
0.0
 70
     8
  0
VERTEX
  5
84
330
   131
100
AcDbEntity
  8
UPME_LineaTransmisionBogota3D
420
     0
100
AcDbVertex
100
AcDb3dPolylineVertex
 10
4882275.04862288106232882
 20
2064982.29749819822609425
 30
2858.498046875
 70
    32
  0
VERTEX
  5
85
330
   131
100
AcDbEntity
  8
UPME_LineaTransmisionBogota3D
420
     0
100
AcDbVertex
100
AcDb3dPolylineVertex
 10
4882302.92864418867975473
 20
2064980.33266094629652798
 30
2858.498046875
 70
    32
  0
VERTEX
  5
86
330
   131
100
AcDbEntity
  8
UPME_LineaTransmisionBogota3D
420
     0
100
AcDbVertex
100
AcDb3dPolylineVertex
 10
4882489.81169737037271261
 20
2064981.04996885266155005
 30
2971.98193359375
 70
    32
  0
VERTEX
  5
87
330
   131
100
AcDbEntity
  8
UPME_LineaTransmisionBogota3D
420
     0
100
AcDbVertex
100
AcDb3dPolylineVertex
 10
4882674.74676136858761311
 20
2064990.30293641076423228
 30
2974.60107421875
 70
    32
  0
VERTEX
  5
88
330
   131
100
AcDbEntity
  8
UPME_LineaTransmisionBogota3D
420
     0
100
AcDbVertex
100
AcDb3dPolylineVertex
 10
4883074.24702715035527945
 20
2065010.29137407522648573
 30
3239.090576171875
 70
    32
  0
VERTEX
  5
89
330
   131
100
AcDbEntity
  8
UPME_LineaTransmisionBogota3D
420
     0
100
AcDbVertex
100
AcDb3dPolylineVertex
 10
4883168.43410149030387402
 20
2065015.00389275280758739
 30
3287.614013671875
 70
    32
  0
VERTEX
  5
8a
330
   131
100
AcDbEntity
  8
UPME_LineaTransmisionBogota3D
420
     0
100
AcDbVertex
100
AcDb3dPolylineVertex
 10
4883321.22525350749492645
 20
2064940.82021878659725189
 30
3287.49853515625
 70
    32
  0
VERTEX
  5
8b
330
   131
100
AcDbEntity
  8
UPME_LineaTransmisionBogota3D
420
     0
100
AcDbVertex
100
AcDb3dPolylineVertex
 10
4883397.53552197478711605
 20
2064828.43173604272305965
 30
3273.00634765625
 70
    32
  0
VERTEX
  5
8c
330
   131
100
AcDbEntity
  8
UPME_LineaTransmisionBogota3D
420
     0
100
AcDbVertex
100
AcDb3dPolylineVertex
 10
4883617.37915908731520176
 20
2064504.64971676445566118
 30
3215.95947265625
 70
    32
  0
VERTEX
  5
8d
330
   131
100
AcDbEntity
  8
UPME_LineaTransmisionBogota3D
420
     0
100
AcDbVertex
100
AcDb3dPolylineVertex
 10
4883618.73635489773005247
 20
2064496.12133982195518911
 30
3215.95947265625
 70
    32
  0
VERTEX
  5
8e
330
   131
100
AcDbEntity
  8
UPME_LineaTransmisionBogota3D
420
     0
100
AcDbVertex
100
AcDb3dPolylineVertex
 10
4883681.60083184391260147
 20
2064101.09215414291247725
 30
3254.18359375
 70
    32
  0
VERTEX
  5
8f
330
   131
100
AcDbEntity
  8
UPME_LineaTransmisionBogota3D
420
     0
100
AcDbVertex
100
AcDb3dPolylineVertex
 10
4883710.43864133395254612
 20
2063919.88049132330343127
 30
3287.635009765625
 70
    32
  0
VERTEX
  5
90
330
   131
100
AcDbEntity
  8
UPME_LineaTransmisionBogota3D
420
     0
100
AcDbVertex
100
AcDb3dPolylineVertex
 10
4883614.88362741842865944
 20
2063725.59980135248042643
 30
3330.6796875
 70
    32
  0
VERTEX
  5
91
330
   131
100
AcDbEntity
  8
UPME_LineaTransmisionBogota3D
420
     0
100
AcDbVertex
100
AcDb3dPolylineVertex
 10
4883539.02224208135157824
 20
2063571.35983338486403227
 30
3357.684814453125
 70
    32
  0
VERTEX
  5
92
330
   131
100
AcDbEntity
  8
UPME_LineaTransmisionBogota3D
420
     0
100
AcDbVertex
100
AcDb3dPolylineVertex
 10
4883428.97659639455378056
 20
2063371.54543717508204281
 30
3338.1123046875
 70
    32
  0
VERTEX
  5
93
330
   131
100
AcDbEntity
  8
UPME_LineaTransmisionBogota3D
420
     0
100
AcDbVertex
100
AcDb3dPolylineVertex
 10
4883358.64364009536802769
 20
2063243.83900127839297056
 30
3318.072998046875
 70
    32
  0
VERTEX
  5
94
330
   131
100
AcDbEntity
  8
UPME_LineaTransmisionBogota3D
420
     0
100
AcDbVertex
100
AcDb3dPolylineVertex
 10
4883236.20398044306784868
 20
2063021.06192758050747216
 30
3248.81689453125
 70
    32
  0
VERTEX
  5
95
330
   131
100
AcDbEntity
  8
UPME_LineaTransmisionBogota3D
420
     0
100
AcDbVertex
100
AcDb3dPolylineVertex
 10
4883043.54247512761503458
 20
2062670.51728795608505607
 30
3270.306884765625
 70
    32
  0
VERTEX
  5
96
330
   131
100
AcDbEntity
  8
UPME_LineaTransmisionBogota3D
420
     0
100
AcDbVertex
100
AcDb3dPolylineVertex
 10
4882949.7837931988760829
 20
2062499.92481119511649013
 30
3270.528076171875
 70
    32
  0
VERTEX
  5
97
330
   131
100
AcDbEntity
  8
UPME_LineaTransmisionBogota3D
420
     0
100
AcDbVertex
100
AcDb3dPolylineVertex
 10
4882851.3821753328666091
 20
2062319.69809010601602495
 30
3164.3642578125
 70
    32
  0
VERTEX
  5
98
330
   131
100
AcDbEntity
  8
UPME_LineaTransmisionBogota3D
420
     0
100
AcDbVertex
100
AcDb3dPolylineVertex
 10
4882659.69701231736689806
 20
2061968.61861437442712486
 30
3113.43359375
 70
    32
  0
VERTEX
  5
99
330
   131
100
AcDbEntity
  8
UPME_LineaTransmisionBogota3D
420
     0
100
AcDbVertex
100
AcDb3dPolylineVertex
 10
4882634.11509672738611698
 20
2061921.76425500516779721
 30
3110.281494140625
 70
    32
  0
VERTEX
  5
9a
330
   131
100
AcDbEntity
  8
UPME_LineaTransmisionBogota3D
420
     0
100
AcDbVertex
100
AcDb3dPolylineVertex
 10
4882467.2307104617357254
 20
2061617.96693465602584183
 30
2951.689453125
 70
    32
  0
VERTEX
  5
9b
330
   131
100
AcDbEntity
  8
UPME_LineaTransmisionBogota3D
420
     0
100
AcDbVertex
100
AcDb3dPolylineVertex
 10
4882274.64410374499857426
 20
2061267.38114071451127529
 30
3027.783935546875
 70
    32
  0
VERTEX
  5
9c
330
   131
100
AcDbEntity
  8
UPME_LineaTransmisionBogota3D
420
     0
100
AcDbVertex
100
AcDb3dPolylineVertex
 10
4882089.97305843140929937
 20
2060931.20488140266388655
 30
3262.560546875
 70
    32
  0
VERTEX
  5
9d
330
   131
100
AcDbEntity
  8
UPME_LineaTransmisionBogota3D
420
     0
100
AcDbVertex
100
AcDb3dPolylineVertex
 10
4882082.10088428389281034
 20
2060916.77159782801754773
 30
3262.560546875
 70
    32
  0
VERTEX
  5
9e
330
   131
100
AcDbEntity
  8
UPME_LineaTransmisionBogota3D
420
     0
100
AcDbVertex
100
AcDb3dPolylineVertex
 10
4881890.56989494059234858
 20
2060565.6079890625551343
 30
3334.756103515625
 70
    32
  0
VERTEX
  5
9f
330
   131
100
AcDbEntity
  8
UPME_LineaTransmisionBogota3D
420
     0
100
AcDbVertex
100
AcDb3dPolylineVertex
 10
4881889.54907515831291676
 20
2060563.73636108264327049
 30
3334.756103515625
 70
    32
  0
VERTEX
  5
a0
330
   131
100
AcDbEntity
  8
UPME_LineaTransmisionBogota3D
420
     0
100
AcDbVertex
100
AcDb3dPolylineVertex
 10
4881754.1231480659916997
 20
2060222.15389028424397111
 30
3358.89306640625
 70
    32
  0
VERTEX
  5
a1
330
   131
100
AcDbEntity
  8
UPME_LineaTransmisionBogota3D
420
     0
100
AcDbVertex
100
AcDb3dPolylineVertex
 10
4881742.93941843695938587
 20
2060193.86528816353529692
 30
3333.660400390625
 70
    32
  0
VERTEX
  5
a2
330
   131
100
AcDbEntity
  8
UPME_LineaTransmisionBogota3D
420
     0
100
AcDbVertex
100
AcDb3dPolylineVertex
 10
4881605.6549453753978014
 20
2059846.61209406098350883
 30
3354.662109375
 70
    32
  0
VERTEX
  5
a3
330
   131
100
AcDbEntity
  8
UPME_LineaTransmisionBogota3D
420
     0
100
AcDbVertex
100
AcDb3dPolylineVertex
 10
4881595.83149321936070919
 20
2059821.8985906234011054
 30
3337.658203125
 70
    32
  0
VERTEX
  5
a4
330
   131
100
AcDbEntity
  8
UPME_LineaTransmisionBogota3D
420
     0
100
AcDbVertex
100
AcDb3dPolylineVertex
 10
4881448.07881705369800329
 20
2059450.18748413654975593
 30
3346.348876953125
 70
    32
  0
VERTEX
  5
a5
330
   131
100
AcDbEntity
  8
UPME_LineaTransmisionBogota3D
420
     0
100
AcDbVertex
100
AcDb3dPolylineVertex
 10
4881361.89194881450384855
 20
2059233.36152206966653466
 30
3396.838623046875
 70
    32
  0
VERTEX
  5
a6
330
   131
100
AcDbEntity
  8
UPME_LineaTransmisionBogota3D
420
     0
100
AcDbVertex
100
AcDb3dPolylineVertex
 10
4881301.01660418603569269
 20
2059078.20370214385911822
 30
3367.9716796875
 70
    32
  0
VERTEX
  5
a7
330
   131
100
AcDbEntity
  8
UPME_LineaTransmisionBogota3D
420
     0
100
AcDbVertex
100
AcDb3dPolylineVertex
 10
4881261.57341677322983742
 20
2058977.67172146681696177
 30
3402.880126953125
 70
    32
  0
VERTEX
  5
a8
330
   131
100
AcDbEntity
  8
UPME_LineaTransmisionBogota3D
420
     0
100
AcDbVertex
100
AcDb3dPolylineVertex
 10
4881177.46089244727045298
 20
2058866.86669279099442065
 30
3410.795654296875
 70
    32
  0
VERTEX
  5
a9
330
   131
100
AcDbEntity
  8
UPME_LineaTransmisionBogota3D
420
     0
100
AcDbVertex
100
AcDb3dPolylineVertex
 10
4881084.84801024198532104
 20
2058745.21463633305393159
 30
3288.092529296875
 70
    32
  0
VERTEX
  5
aa
330
   131
100
AcDbEntity
  8
UPME_LineaTransmisionBogota3D
420
     0
100
AcDbVertex
100
AcDb3dPolylineVertex
 10
4880842.55389496404677629
 20
2058426.94814154994674027
 30
3293.8271484375
 70
    32
  0
VERTEX
  5
ab
330
   131
100
AcDbEntity
  8
UPME_LineaTransmisionBogota3D
420
     0
100
AcDbVertex
100
AcDb3dPolylineVertex
 10
4880688.8101427061483264
 20
2058224.99736338248476386
 30
3323.47119140625
 70
    32
  0
VERTEX
  5
ac
330
   131
100
AcDbEntity
  8
UPME_LineaTransmisionBogota3D
420
     0
100
AcDbVertex
100
AcDb3dPolylineVertex
 10
4880600.27687264885753393
 20
2058108.66863599373027682
 30
3287.8544921875
 70
    32
  0
VERTEX
  5
ad
330
   131
100
AcDbEntity
  8
UPME_LineaTransmisionBogota3D
420
     0
100
AcDbVertex
100
AcDb3dPolylineVertex
 10
4880405.43279588501900434
 20
2057852.6522991459351033
 30
3293.69287109375
 70
    32
  0
VERTEX
  5
ae
330
   131
100
AcDbEntity
  8
UPME_LineaTransmisionBogota3D
420
     0
100
AcDbVertex
100
AcDb3dPolylineVertex
 10
4880358.03560645505785942
 20
2057790.361914869165048
 30
3272.659912109375
 70
    32
  0
VERTEX
  5
af
330
   131
100
AcDbEntity
  8
UPME_LineaTransmisionBogota3D
420
     0
100
AcDbVertex
100
AcDb3dPolylineVertex
 10
4880115.81932631973177195
 20
2057472.03617975278757513
 30
3198.649169921875
 70
    32
  0
VERTEX
  5
b0
330
   131
100
AcDbEntity
  8
UPME_LineaTransmisionBogota3D
420
     0
100
AcDbVertex
100
AcDb3dPolylineVertex
 10
4879961.84227925445884466
 20
2057269.67630257690325379
 30
3218.96826171875
 70
    32
  0
VERTEX
  5
b1
330
   131
100
AcDbEntity
  8
UPME_LineaTransmisionBogota3D
420
     0
100
AcDbVertex
100
AcDb3dPolylineVertex
 10
4879874.97802723105996847
 20
2057152.67696847207844257
 30
3173.587158203125
 70
    32
  0
VERTEX
  5
b2
330
   131
100
AcDbEntity
  8
UPME_LineaTransmisionBogota3D
420
     0
100
AcDbVertex
100
AcDb3dPolylineVertex
 10
4879736.53154717013239861
 20
2056966.20041915657930076
 30
3126.843017578125
 70
    32
  0
VERTEX
  5
b3
330
   131
100
AcDbEntity
  8
UPME_LineaTransmisionBogota3D
420
     0
100
AcDbVertex
100
AcDb3dPolylineVertex
 10
4879637.15598506573587656
 20
2056831.05630106735043228
 30
3119.813232421875
 70
    32
  0
VERTEX
  5
b4
330
   131
100
AcDbEntity
  8
UPME_LineaTransmisionBogota3D
420
     0
100
AcDbVertex
100
AcDb3dPolylineVertex
 10
4879430.69156251288950443
 20
2056550.27849501674063504
 30
3099.6796875
 70
    32
  0
VERTEX
  5
b5
330
   131
100
AcDbEntity
  8
UPME_LineaTransmisionBogota3D
420
     0
100
AcDbVertex
100
AcDb3dPolylineVertex
 10
4879400.10791301913559437
 20
2056508.8635990098118782
 30
3091.3330078125
 70
    32
  0
VERTEX
  5
b6
330
   131
100
AcDbEntity
  8
UPME_LineaTransmisionBogota3D
420
     0
100
AcDbVertex
100
AcDb3dPolylineVertex
 10
4879162.48898401763290167
 20
2056187.09156078961677849
 30
3058.05859375
 70
    32
  0
VERTEX
  5
b7
330
   131
100
AcDbEntity
  8
UPME_LineaTransmisionBogota3D
420
     0
100
AcDbVertex
100
AcDb3dPolylineVertex
 10
4879140.70164786372333765
 20
2056157.58820602251216769
 30
3053.54638671875
 70
    32
  0
VERTEX
  5
b8
330
   131
100
AcDbEntity
  8
UPME_LineaTransmisionBogota3D
420
     0
100
AcDbVertex
100
AcDb3dPolylineVertex
 10
4878798.19061631895601749
 20
2056036.3840267697814852
 30
3006.948486328125
 70
    32
  0
VERTEX
  5
b9
330
   131
100
AcDbEntity
  8
UPME_LineaTransmisionBogota3D
420
     0
100
AcDbVertex
100
AcDb3dPolylineVertex
 10
4878631.86588085535913706
 20
2055977.52678949944674969
 30
3023.3427734375
 70
    32
  0
VERTEX
  5
ba
330
   131
100
AcDbEntity
  8
UPME_LineaTransmisionBogota3D
420
     0
100
AcDbVertex
100
AcDb3dPolylineVertex
 10
4878417.03827707376331091
 20
2055915.62402484007179737
 30
2942.133544921875
 70
    32
  0
VERTEX
  5
bb
330
   131
100
AcDbEntity
  8
UPME_LineaTransmisionBogota3D
420
     0
100
AcDbVertex
100
AcDb3dPolylineVertex
 10
4878365.20983588229864836
 20
2055900.689613520167768
 30
2920.897216796875
 70
    32
  0
VERTEX
  5
bc
330
   131
100
AcDbEntity
  8
UPME_LineaTransmisionBogota3D
420
     0
100
AcDbVertex
100
AcDb3dPolylineVertex
 10
4878032.73682282399386168
 20
2055804.66283785947598517
 30
2808.9990234375
 70
    32
  0
VERTEX
  5
bd
330
   131
100
AcDbEntity
  8
UPME_LineaTransmisionBogota3D
420
     0
100
AcDbVertex
100
AcDb3dPolylineVertex
 10
4877658.74955354817211628
 20
2055696.6456749732606113
 30
2783.869140625
 70
    32
  0
VERTEX
  5
be
330
   131
100
AcDbEntity
  8
UPME_LineaTransmisionBogota3D
420
     0
100
AcDbVertex
100
AcDb3dPolylineVertex
 10
4877648.44018474314361811
 20
2055693.68498254264704883
 30
2785.366455078125
 70
    32
  0
VERTEX
  5
bf
330
   131
100
AcDbEntity
  8
UPME_LineaTransmisionBogota3D
420
     0
100
AcDbVertex
100
AcDb3dPolylineVertex
 10
4877524.64300590008497238
 20
2055658.13233356224372983
 30
2780.051025390625
 70
    32
  0
VERTEX
  5
c0
330
   131
100
AcDbEntity
  8
UPME_LineaTransmisionBogota3D
420
     0
100
AcDbVertex
100
AcDb3dPolylineVertex
 10
4877373.98241701070219278
 20
2055615.11767955054529011
 30
2781.043701171875
 70
    32
  0
VERTEX
  5
c1
330
   131
100
AcDbEntity
  8
UPME_LineaTransmisionBogota3D
420
     0
100
AcDbVertex
100
AcDb3dPolylineVertex
 10
4877263.55167889315634966
 20
2055584.79542665788903832
 30
2777.581298828125
 70
    32
  0
VERTEX
  5
c2
330
   131
100
AcDbEntity
  8
UPME_LineaTransmisionBogota3D
420
     0
100
AcDbVertex
100
AcDb3dPolylineVertex
 10
4877016.3731925692409277
 20
2055516.92475315066985786
 30
2765.870361328125
 70
    32
  0
VERTEX
  5
c3
330
   131
100
AcDbEntity
  8
UPME_LineaTransmisionBogota3D
420
     0
100
AcDbVertex
100
AcDb3dPolylineVertex
 10
4876877.9469347046688199
 20
2055478.4533979098778218
 30
2767.96240234375
 70
    32
  0
VERTEX
  5
c4
330
   131
100
AcDbEntity
  8
UPME_LineaTransmisionBogota3D
420
     0
100
AcDbVertex
100
AcDb3dPolylineVertex
 10
4876786.37697855848819017
 20
2055453.00432223174721003
 30
2769.38037109375
 70
    32
  0
VERTEX
  5
c5
330
   131
100
AcDbEntity
  8
UPME_LineaTransmisionBogota3D
420
     0
100
AcDbVertex
100
AcDb3dPolylineVertex
 10
4876550.67440689913928509
 20
2055396.16262985882349312
 30
2763.263427734375
 70
    32
  0
VERTEX
  5
c6
330
   131
100
AcDbEntity
  8
UPME_LineaTransmisionBogota3D
420
     0
100
AcDbVertex
100
AcDb3dPolylineVertex
 10
4876488.17964184377342463
 20
2055396.95363613869994879
 30
2757.43798828125
 70
    32
  0
VERTEX
  5
c7
330
   131
100
AcDbEntity
  8
UPME_LineaTransmisionBogota3D
420
     0
100
AcDbVertex
100
AcDb3dPolylineVertex
 10
4876088.21167873777449131
 20
2055402.01609489507973194
 30
2694.4375
 70
    32
  0
VERTEX
  5
c8
330
   131
100
AcDbEntity
  8
UPME_LineaTransmisionBogota3D
420
     0
100
AcDbVertex
100
AcDb3dPolylineVertex
 10
4875972.07923616003245115
 20
2055403.4860018752515316
 30
2698.283447265625
 70
    32
  0
VERTEX
  5
c9
330
   131
100
AcDbEntity
  8
UPME_LineaTransmisionBogota3D
420
     0
100
AcDbVertex
100
AcDb3dPolylineVertex
 10
4875726.17546180542558432
 20
2055261.68740209355019033
 30
2648.762939453125
 70
    32
  0
VERTEX
  5
ca
330
   131
100
AcDbEntity
  8
UPME_LineaTransmisionBogota3D
420
     0
100
AcDbVertex
100
AcDb3dPolylineVertex
 10
4875379.65917108301073313
 20
2055061.87133601284585893
 30
2655.728759765625
 70
    32
  0
VERTEX
  5
cb
330
   131
100
AcDbEntity
  8
UPME_LineaTransmisionBogota3D
420
     0
100
AcDbVertex
100
AcDb3dPolylineVertex
 10
4875336.38270726427435875
 20
2055036.9162819916382432
 30
2669.875244140625
 70
    32
  0
VERTEX
  5
cc
330
   131
100
AcDbEntity
  8
UPME_LineaTransmisionBogota3D
420
     0
100
AcDbVertex
100
AcDb3dPolylineVertex
 10
4874989.77071001660078764
 20
2055085.81300502014346421
 30
2681.603271484375
 70
    32
  0
VERTEX
  5
cd
330
   131
100
AcDbEntity
  8
UPME_LineaTransmisionBogota3D
420
     0
100
AcDbVertex
100
AcDb3dPolylineVertex
 10
4874593.6924480265006423
 20
2055141.68795807380229235
 30
2780.93310546875
 70
    32
  0
VERTEX
  5
ce
330
   131
100
AcDbEntity
  8
UPME_LineaTransmisionBogota3D
420
     0
100
AcDbVertex
100
AcDb3dPolylineVertex
 10
4874470.0907810227945447
 20
2055159.12450535246171057
 30
2834.15673828125
 70
    32
  0
VERTEX
  5
cf
330
   131
100
AcDbEntity
  8
UPME_LineaTransmisionBogota3D
420
     0
100
AcDbVertex
100
AcDb3dPolylineVertex
 10
4874303.0149439861997962
 20
2055377.77187106409110129
 30
2821.26806640625
 70
    32
  0
VERTEX
  5
d0
330
   131
100
AcDbEntity
  8
UPME_LineaTransmisionBogota3D
420
     0
100
AcDbVertex
100
AcDb3dPolylineVertex
 10
4874269.78176630474627018
 20
2055421.26317946147173643
 30
2839.1513671875
 70
    32
  0
VERTEX
  5
d1
330
   131
100
AcDbEntity
  8
UPME_LineaTransmisionBogota3D
420
     0
100
AcDbVertex
100
AcDb3dPolylineVertex
 10
4873925.84406461473554373
 20
2055451.506615552585572
 30
2826.282470703125
 70
    32
  0
VERTEX
  5
d2
330
   131
100
AcDbEntity
  8
UPME_LineaTransmisionBogota3D
420
     0
100
AcDbVertex
100
AcDb3dPolylineVertex
 10
4873899.87323239725083113
 20
2055453.79030588525347412
 30
2833.659912109375
 70
    32
  0
VERTEX
  5
d3
330
   131
100
AcDbEntity
  8
UPME_LineaTransmisionBogota3D
420
     0
100
AcDbVertex
100
AcDb3dPolylineVertex
 10
4873526.08384674414992332
 20
2055464.0059235505759716
 30
2829.635986328125
 70
    32
  0
VERTEX
  5
d4
330
   131
100
AcDbEntity
  8
UPME_LineaTransmisionBogota3D
420
     0
100
AcDbVertex
100
AcDb3dPolylineVertex
 10
4873281.27237005811184645
 20
2055470.69659092067740858
 30
2853.28466796875
 70
    32
  0
VERTEX
  5
d5
330
   131
100
AcDbEntity
  8
UPME_LineaTransmisionBogota3D
420
     0
100
AcDbVertex
100
AcDb3dPolylineVertex
 10
4873151.13284704089164734
 20
2055555.06968470802530646
 30
2854.696044921875
 70
    32
  0
VERTEX
  5
d6
330
   131
100
AcDbEntity
  8
UPME_LineaTransmisionBogota3D
420
     0
100
AcDbVertex
100
AcDb3dPolylineVertex
 10
4872988.67905620392411947
 20
2055660.39302240428514779
 30
2870.750732421875
 70
    32
  0
VERTEX
  5
d7
330
   131
100
AcDbEntity
  8
UPME_LineaTransmisionBogota3D
420
     0
100
AcDbVertex
100
AcDb3dPolylineVertex
 10
4872857.9344121003523469
 20
2055745.1583721567876637
 30
2885.278564453125
 70
    32
  0
VERTEX
  5
d8
330
   131
100
AcDbEntity
  8
UPME_LineaTransmisionBogota3D
420
     0
100
AcDbVertex
100
AcDb3dPolylineVertex
 10
4872815.44192569330334663
 20
2055772.58181901136413217
 30
2885.760498046875
 70
    32
  0
VERTEX
  5
d9
330
   131
100
AcDbEntity
  8
UPME_LineaTransmisionBogota3D
420
     0
100
AcDbVertex
100
AcDb3dPolylineVertex
 10
4872516.46668398752808571
 20
2055965.53196961246430874
 30
2922.47998046875
 70
    32
  0
VERTEX
  5
da
330
   131
100
AcDbEntity
  8
UPME_LineaTransmisionBogota3D
420
     0
100
AcDbVertex
100
AcDb3dPolylineVertex
 10
4872479.37250787485390902
 20
2055989.50885391375049949
 30
2928.814453125
 70
    32
  0
VERTEX
  5
db
330
   131
100
AcDbEntity
  8
UPME_LineaTransmisionBogota3D
420
     0
100
AcDbVertex
100
AcDb3dPolylineVertex
 10
4872143.44027228839695454
 20
2056206.64828629279509187
 30
2949.135986328125
 70
    32
  0
VERTEX
  5
dc
330
   131
100
AcDbEntity
  8
UPME_LineaTransmisionBogota3D
420
     0
100
AcDbVertex
100
AcDb3dPolylineVertex
 10
4872115.09271931368857622
 20
2056224.97153994394466281
 30
2948.59912109375
 70
    32
  0
VERTEX
  5
dd
330
   131
100
AcDbEntity
  8
UPME_LineaTransmisionBogota3D
420
     0
100
AcDbVertex
100
AcDb3dPolylineVertex
 10
4871807.57588101085275412
 20
2056423.89264003536663949
 30
2994.4375
 70
    32
  0
VERTEX
  5
de
330
   131
100
AcDbEntity
  8
UPME_LineaTransmisionBogota3D
420
     0
100
AcDbVertex
100
AcDb3dPolylineVertex
 10
4871552.96965792309492826
 20
2056588.58784913760609925
 30
3055.856201171875
 70
    32
  0
VERTEX
  5
df
330
   131
100
AcDbEntity
  8
UPME_LineaTransmisionBogota3D
420
     0
100
AcDbVertex
100
AcDb3dPolylineVertex
 10
4871473.44344023987650871
 20
2056643.72298719477839768
 30
3063.0048828125
 70
    32
  0
VERTEX
  5
e0
330
   131
100
AcDbEntity
  8
UPME_LineaTransmisionBogota3D
420
     0
100
AcDbVertex
100
AcDb3dPolylineVertex
 10
4871171.59054169617593288
 20
2056852.99612653278745711
 30
3064.986083984375
 70
    32
  0
VERTEX
  5
e1
330
   131
100
AcDbEntity
  8
UPME_LineaTransmisionBogota3D
420
     0
100
AcDbVertex
100
AcDb3dPolylineVertex
 10
4871144.73722039349377155
 20
2056871.65325939026661217
 30
3060.0166015625
 70
    32
  0
VERTEX
  5
e2
330
   131
100
AcDbEntity
  8
UPME_LineaTransmisionBogota3D
420
     0
100
AcDbVertex
100
AcDb3dPolylineVertex
 10
4870889.05091026984155178
 20
2057049.29882524604909122
 30
3046.8408203125
 70
    32
  0
VERTEX
  5
e3
330
   131
100
AcDbEntity
  8
UPME_LineaTransmisionBogota3D
420
     0
100
AcDbVertex
100
AcDb3dPolylineVertex
 10
4870816.30651663802564144
 20
2057099.98027555528096855
 30
3040.04150390625
 70
    32
  0
VERTEX
  5
e4
330
   131
100
AcDbEntity
  8
UPME_LineaTransmisionBogota3D
420
     0
100
AcDbVertex
100
AcDb3dPolylineVertex
 10
4870488.10664589330554008
 20
2057328.63907123799435794
 30
3026.374755859375
 70
    32
  0
VERTEX
  5
e5
330
   131
100
AcDbEntity
  8
UPME_LineaTransmisionBogota3D
420
     0
100
AcDbVertex
100
AcDb3dPolylineVertex
 10
4870398.85085614118725061
 20
2057390.8241091116797179
 30
3034.326904296875
 70
    32
  0
VERTEX
  5
e6
330
   131
100
AcDbEntity
  8
UPME_LineaTransmisionBogota3D
420
     0
100
AcDbVertex
100
AcDb3dPolylineVertex
 10
4870159.75595998112112284
 20
2057557.0811886927112937
 30
3053.72998046875
 70
    32
  0
VERTEX
  5
e7
330
   131
100
AcDbEntity
  8
UPME_LineaTransmisionBogota3D
420
     0
100
AcDbVertex
100
AcDb3dPolylineVertex
 10
4869946.58758494351059198
 20
2057705.30999684310518205
 30
3150.423583984375
 70
    32
  0
VERTEX
  5
e8
330
   131
100
AcDbEntity
  8
UPME_LineaTransmisionBogota3D
420
     0
100
AcDbVertex
100
AcDb3dPolylineVertex
 10
4869831.1892416151240468
 20
2057785.21221776423044503
 30
3127.445068359375
 70
    32
  0
VERTEX
  5
e9
330
   131
100
AcDbEntity
  8
UPME_LineaTransmisionBogota3D
420
     0
100
AcDbVertex
100
AcDb3dPolylineVertex
 10
4869508.29936489183455706
 20
2058008.78231001272797585
 30
3155.172119140625
 70
    32
  0
VERTEX
  5
ea
330
   131
100
AcDbEntity
  8
UPME_LineaTransmisionBogota3D
420
     0
100
AcDbVertex
100
AcDb3dPolylineVertex
 10
4869510.532549187541008
 20
2058015.69465867592953146
 30
3155.172119140625
 70
    32
  0
VERTEX
  5
eb
330
   131
100
AcDbEntity
  8
UPME_LineaTransmisionBogota3D
420
     0
100
AcDbVertex
100
AcDb3dPolylineVertex
 10
4869517.33566225226968527
 20
2058036.75225324393250048
 30
3141.373046875
 70
    32
  0
VERTEX
  5
ec
330
   131
100
AcDbEntity
  8
UPME_LineaTransmisionBogota3D
420
     0
100
AcDbVertex
100
AcDb3dPolylineVertex
 10
4869643.27470175176858902
 20
2058393.01851061568595469
 30
3051.66748046875
 70
    32
  0
VERTEX
  5
ed
330
   131
100
AcDbEntity
  8
UPME_LineaTransmisionBogota3D
420
     0
100
AcDbVertex
100
AcDb3dPolylineVertex
 10
4869740.1427919939160347
 20
2058667.04658091557212174
 30
3067.64697265625
 70
    32
  0
VERTEX
  5
ee
330
   131
100
AcDbEntity
  8
UPME_LineaTransmisionBogota3D
420
     0
100
AcDbVertex
100
AcDb3dPolylineVertex
 10
4869776.32072106655687094
 20
2058770.24329977249726653
 30
3062.53271484375
 70
    32
  0
VERTEX
  5
ef
330
   131
100
AcDbEntity
  8
UPME_LineaTransmisionBogota3D
420
     0
100
AcDbVertex
100
AcDb3dPolylineVertex
 10
4869863.68470176495611668
 20
2059019.44706530962139368
 30
3071.854248046875
 70
    32
  0
VERTEX
  5
f0
330
   131
100
AcDbEntity
  8
UPME_LineaTransmisionBogota3D
420
     0
100
AcDbVertex
100
AcDb3dPolylineVertex
 10
4869908.98125483002513647
 20
2059147.6038012292701751
 30
3061.755859375
 70
    32
  0
VERTEX
  5
f1
330
   131
100
AcDbEntity
  8
UPME_LineaTransmisionBogota3D
420
     0
100
AcDbVertex
100
AcDb3dPolylineVertex
 10
4870011.50016022194176912
 20
2059437.65872585168108344
 30
3052.681884765625
 70
    32
  0
VERTEX
  5
f2
330
   131
100
AcDbEntity
  8
UPME_LineaTransmisionBogota3D
420
     0
100
AcDbVertex
100
AcDb3dPolylineVertex
 10
4870042.22203813958913088
 20
2059524.76011048234067857
 30
3041.733642578125
 70
    32
  0
VERTEX
  5
f3
330
   131
100
AcDbEntity
  8
UPME_LineaTransmisionBogota3D
420
     0
100
AcDbVertex
100
AcDb3dPolylineVertex
 10
4870175.27387935761362314
 20
2059901.98313145083375275
 30
2970.379150390625
 70
    32
  0
VERTEX
  5
f4
330
   131
100
AcDbEntity
  8
UPME_LineaTransmisionBogota3D
420
     0
100
AcDbVertex
100
AcDb3dPolylineVertex
 10
4870195.08030416071414948
 20
2059958.13747948920354247
 30
2971.294677734375
 70
    32
  0
VERTEX
  5
f5
330
   131
100
AcDbEntity
  8
UPME_LineaTransmisionBogota3D
420
     0
100
AcDbVertex
100
AcDb3dPolylineVertex
 10
4870308.97876355983316898
 20
2060278.97506772098131478
 30
2936.8232421875
 70
    32
  0
VERTEX
  5
f6
330
   131
100
AcDbEntity
  8
UPME_LineaTransmisionBogota3D
420
     0
100
AcDbVertex
100
AcDb3dPolylineVertex
 10
4870357.09645836055278778
 20
2060414.51654240395873785
 30
2923.316650390625
 70
    32
  0
VERTEX
  5
f7
330
   131
100
AcDbEntity
  8
UPME_LineaTransmisionBogota3D
420
     0
100
AcDbVertex
100
AcDb3dPolylineVertex
 10
4870442.90216160658746958
 20
2060655.88953623780980706
 30
2867.6640625
 70
    32
  0
VERTEX
  5
f8
330
   131
100
AcDbEntity
  8
UPME_LineaTransmisionBogota3D
420
     0
100
AcDbVertex
100
AcDb3dPolylineVertex
 10
4870576.88411841727793217
 20
2061032.78320194385014474
 30
2831.76220703125
 70
    32
  0
VERTEX
  5
f9
330
   131
100
AcDbEntity
  8
UPME_LineaTransmisionBogota3D
420
     0
100
AcDbVertex
100
AcDb3dPolylineVertex
 10
4870659.48011966608464718
 20
2061265.12724605691619217
 30
2880.216796875
 70
    32
  0
VERTEX
  5
fa
330
   131
100
AcDbEntity
  8
UPME_LineaTransmisionBogota3D
420
     0
100
AcDbVertex
100
AcDb3dPolylineVertex
 10
4870710.57178448885679245
 20
2061409.78114789561368525
 30
2889.87255859375
 70
    32
  0
VERTEX
  5
fb
330
   131
100
AcDbEntity
  8
UPME_LineaTransmisionBogota3D
420
     0
100
AcDbVertex
100
AcDb3dPolylineVertex
 10
4870775.90489108394831419
 20
2061594.75630619050934911
 30
2892.042724609375
 70
    32
  0
VERTEX
  5
fc
330
   131
100
AcDbEntity
  8
UPME_LineaTransmisionBogota3D
420
     0
100
AcDbVertex
100
AcDb3dPolylineVertex
 10
4870888.90477153938263655
 20
2061764.39144442044198513
 30
2864.59033203125
 70
    32
  0
VERTEX
  5
fd
330
   131
100
AcDbEntity
  8
UPME_LineaTransmisionBogota3D
420
     0
100
AcDbVertex
100
AcDb3dPolylineVertex
 10
4870930.62864029314368963
 20
2061827.02721195458434522
 30
2855.15576171875
 70
    32
  0
VERTEX
  5
fe
330
   131
100
AcDbEntity
  8
UPME_LineaTransmisionBogota3D
420
     0
100
AcDbVertex
100
AcDb3dPolylineVertex
 10
4871109.8581576831638813
 20
2062097.82717320555821061
 30
2796.903076171875
 70
    32
  0
VERTEX
  5
ff
330
   131
100
AcDbEntity
  8
UPME_LineaTransmisionBogota3D
420
     0
100
AcDbVertex
100
AcDb3dPolylineVertex
 10
4871280.62790614832192659
 20
2062355.84517124854028225
 30
2766.63916015625
 70
    32
  0
VERTEX
  5
100
330
   131
100
AcDbEntity
  8
UPME_LineaTransmisionBogota3D
420
     0
100
AcDbVertex
100
AcDb3dPolylineVertex
 10
4871317.50582180079072714
 20
2062438.58730761078186333
 30
2738.532958984375
 70
    32
  0
VERTEX
  5
101
330
   131
100
AcDbEntity
  8
UPME_LineaTransmisionBogota3D
420
     0
100
AcDbVertex
100
AcDb3dPolylineVertex
 10
4871480.343238296918571
 20
2062803.94189672754146159
 30
2697.34326171875
 70
    32
  0
VERTEX
  5
102
330
   131
100
AcDbEntity
  8
UPME_LineaTransmisionBogota3D
420
     0
100
AcDbVertex
100
AcDb3dPolylineVertex
 10
4871550.44498184137046337
 20
2062961.22757627163082361
 30
2703.09521484375
 70
    32
  0
VERTEX
  5
103
330
   131
100
AcDbEntity
  8
UPME_LineaTransmisionBogota3D
420
     0
100
AcDbVertex
100
AcDb3dPolylineVertex
 10
4871643.26034204941242933
 20
2063168.44711415376514196
 30
2685.19580078125
 70
    32
  0
VERTEX
  5
104
330
   131
100
AcDbEntity
  8
UPME_LineaTransmisionBogota3D
420
     0
100
AcDbVertex
100
AcDb3dPolylineVertex
 10
4871643.561232915148139
 20
2063169.12643879698589444
 30
2685.19580078125
 70
    32
  0
VERTEX
  5
105
330
   131
100
AcDbEntity
  8
UPME_LineaTransmisionBogota3D
420
     0
100
AcDbVertex
100
AcDb3dPolylineVertex
 10
4871710.82113814353942871
 20
2063320.97987232892774045
 30
2662.742431640625
 70
    32
  0
VERTEX
  5
106
330
   131
100
AcDbEntity
  8
UPME_LineaTransmisionBogota3D
420
     0
100
AcDbVertex
100
AcDb3dPolylineVertex
 10
4871892.00115444511175156
 20
2063468.93679227563552558
 30
2593.597900390625
 70
    32
  0
VERTEX
  5
107
330
   131
100
AcDbEntity
  8
UPME_LineaTransmisionBogota3D
420
     0
100
AcDbVertex
100
AcDb3dPolylineVertex
 10
4872187.57210000045597553
 20
2063710.30870305700227618
 30
2567.92529296875
 70
    32
  0
VERTEX
  5
108
330
   131
100
AcDbEntity
  8
UPME_LineaTransmisionBogota3D
420
     0
100
AcDbVertex
100
AcDb3dPolylineVertex
 10
4872203.82269927579909563
 20
2063718.92752333404496312
 30
2566.65087890625
 70
    32
  0
VERTEX
  5
109
330
   131
100
AcDbEntity
  8
UPME_LineaTransmisionBogota3D
420
     0
100
AcDbVertex
100
AcDb3dPolylineVertex
 10
4872361.0055135041475296
 20
2063802.29247520654462278
 30
2565.052734375
 70
    32
  0
VERTEX
  5
10a
330
   131
100
AcDbEntity
  8
UPME_LineaTransmisionBogota3D
420
     0
100
AcDbVertex
100
AcDb3dPolylineVertex
 10
4872528.18459662701934576
 20
2063809.79593475256115198
 30
2562.4609375
 70
    32
  0
VERTEX
  5
10b
330
   131
100
AcDbEntity
  8
UPME_LineaTransmisionBogota3D
420
     0
100
AcDbVertex
100
AcDb3dPolylineVertex
 10
4872578.48949091136455536
 20
2063788.23476441996172071
 30
2558.961181640625
 70
    32
  0
VERTEX
  5
10c
330
   131
100
AcDbEntity
  8
UPME_LineaTransmisionBogota3D
420
     0
100
AcDbVertex
100
AcDb3dPolylineVertex
 10
4872937.67375646531581879
 20
2063634.28487066412344575
 30
2555.759033203125
 70
    32
  0
VERTEX
  5
10d
330
   131
100
AcDbEntity
  8
UPME_LineaTransmisionBogota3D
420
     0
100
AcDbVertex
100
AcDb3dPolylineVertex
 10
4872946.83416187856346369
 20
2063633.29499691678211093
 30
2555.759033203125
 70
    32
  0
VERTEX
  5
10e
330
   131
100
AcDbEntity
  8
UPME_LineaTransmisionBogota3D
420
     0
100
AcDbVertex
100
AcDb3dPolylineVertex
 10
4873344.51902330201119184
 20
2063590.32115609967149794
 30
2559.88623046875
 70
    32
  0
VERTEX
  5
10f
330
   131
100
AcDbEntity
  8
UPME_LineaTransmisionBogota3D
420
     0
100
AcDbVertex
100
AcDb3dPolylineVertex
 10
4873350.35776085499674082
 20
2063589.69022190407849848
 30
2559.88623046875
 70
    32
  0
VERTEX
  5
110
330
   131
100
AcDbEntity
  8
UPME_LineaTransmisionBogota3D
420
     0
100
AcDbVertex
100
AcDb3dPolylineVertex
 10
4873382.45058788545429707
 20
2063591.46938156965188682
 30
2557.302978515625
 70
    32
  0
VERTEX
  5
111
330
   131
100
AcDbEntity
  8
UPME_LineaTransmisionBogota3D
420
     0
100
AcDbVertex
100
AcDb3dPolylineVertex
 10
4873435.73988859355449677
 20
2063557.03620361513458192
 30
2558.116455078125
 70
    32
  0
VERTEX
  5
112
330
   131
100
AcDbEntity
  8
UPME_LineaTransmisionBogota3D
420
     0
100
AcDbVertex
100
AcDb3dPolylineVertex
 10
4873461.5965142035856843
 20
2063534.44754061312414706
 30
2559.24755859375
 70
    32
  0
SEQEND
  5
113
330
   131
100
AcDbEntity
  8
UPME_LineaTransmisionBogota3D
420
     0
  0
POINT
  5
114
100
AcDbEntity
100
AcDbPoint
  8
UPME_LineaTransmisionBogotaSplitNodoZ3D
420
     0
 10
4882275.04862288106232882
 20
2064982.29749819822609425
 30
2858.498046875
  0
POINT
  5
115
100
AcDbEntity
100
AcDbPoint
  8
UPME_LineaTransmisionBogotaSplitNodoZ3D
420
     0
 10
4882302.92864418867975473
 20
2064980.33266094629652798
 30
2858.498046875
  0
POINT
  5
116
100
AcDbEntity
100
AcDbPoint
  8
UPME_LineaTransmisionBogotaSplitNodoZ3D
420
     0
 10
4882489.81169737037271261
 20
2064981.04996885266155005
 30
2971.98193359375
  0
POINT
  5
117
100
AcDbEntity
100
AcDbPoint
  8
UPME_LineaTransmisionBogotaSplitNodoZ3D
420
     0
 10
4882674.74676136858761311
 20
2064990.30293641076423228
 30
2974.60107421875
  0
POINT
  5
118
100
AcDbEntity
100
AcDbPoint
  8
UPME_LineaTransmisionBogotaSplitNodoZ3D
420
     0
 10
4882674.74676136858761311
 20
2064990.30293641076423228
 30
2974.60107421875
  0
POINT
  5
119
100
AcDbEntity
100
AcDbPoint
  8
UPME_LineaTransmisionBogotaSplitNodoZ3D
420
     0
 10
4883074.24702715035527945
 20
2065010.29137407522648573
 30
3239.090576171875
  0
POINT
  5
11a
100
AcDbEntity
100
AcDbPoint
  8
UPME_LineaTransmisionBogotaSplitNodoZ3D
420
     0
 10
4883074.24702715035527945
 20
2065010.29137407522648573
 30
3239.090576171875
  0
POINT
  5
11b
100
AcDbEntity
100
AcDbPoint
  8
UPME_LineaTransmisionBogotaSplitNodoZ3D
420
     0
 10
4883168.43410149030387402
 20
2065015.00389275280758739
 30
3287.614013671875
  0
POINT
  5
11c
100
AcDbEntity
100
AcDbPoint
  8
UPME_LineaTransmisionBogotaSplitNodoZ3D
420
     0
 10
4883321.22525350749492645
 20
2064940.82021878659725189
 30
3287.49853515625
  0
POINT
  5
11d
100
AcDbEntity
100
AcDbPoint
  8
UPME_LineaTransmisionBogotaSplitNodoZ3D
420
     0
 10
4883397.53552197478711605
 20
2064828.43173604272305965
 30
3273.00634765625
  0
POINT
  5
11e
100
AcDbEntity
100
AcDbPoint
  8
UPME_LineaTransmisionBogotaSplitNodoZ3D
420
     0
 10
4883397.53552197478711605
 20
2064828.43173604272305965
 30
3273.00634765625
  0
POINT
  5
11f
100
AcDbEntity
100
AcDbPoint
  8
UPME_LineaTransmisionBogotaSplitNodoZ3D
420
     0
 10
4883617.37915908731520176
 20
2064504.64971676445566118
 30
3215.95947265625
  0
POINT
  5
120
100
AcDbEntity
100
AcDbPoint
  8
UPME_LineaTransmisionBogotaSplitNodoZ3D
420
     0
 10
4883618.73635489773005247
 20
2064496.12133982195518911
 30
3215.95947265625
  0
POINT
  5
121
100
AcDbEntity
100
AcDbPoint
  8
UPME_LineaTransmisionBogotaSplitNodoZ3D
420
     0
 10
4883618.73635489773005247
 20
2064496.12133982195518911
 30
3215.95947265625
  0
POINT
  5
122
100
AcDbEntity
100
AcDbPoint
  8
UPME_LineaTransmisionBogotaSplitNodoZ3D
420
     0
 10
4883681.60083184391260147
 20
2064101.09215414291247725
 30
3254.18359375
  0
POINT
  5
123
100
AcDbEntity
100
AcDbPoint
  8
UPME_LineaTransmisionBogotaSplitNodoZ3D
420
     0
 10
4883681.60083184391260147
 20
2064101.09215414291247725
 30
3254.18359375
  0
POINT
  5
124
100
AcDbEntity
100
AcDbPoint
  8
UPME_LineaTransmisionBogotaSplitNodoZ3D
420
     0
 10
4883710.43864133395254612
 20
2063919.88049132330343127
 30
3287.635009765625
  0
POINT
  5
125
100
AcDbEntity
100
AcDbPoint
  8
UPME_LineaTransmisionBogotaSplitNodoZ3D
420
     0
 10
4883614.88362741842865944
 20
2063725.59980135248042643
 30
3330.6796875
  0
POINT
  5
126
100
AcDbEntity
100
AcDbPoint
  8
UPME_LineaTransmisionBogotaSplitNodoZ3D
420
     0
 10
4883614.88362741842865944
 20
2063725.59980135248042643
 30
3330.6796875
  0
POINT
  5
127
100
AcDbEntity
100
AcDbPoint
  8
UPME_LineaTransmisionBogotaSplitNodoZ3D
420
     0
 10
4883539.02224208135157824
 20
2063571.35983338486403227
 30
3357.684814453125
  0
POINT
  5
128
100
AcDbEntity
100
AcDbPoint
  8
UPME_LineaTransmisionBogotaSplitNodoZ3D
420
     0
 10
4883428.97659639455378056
 20
2063371.54543717508204281
 30
3338.1123046875
  0
POINT
  5
129
100
AcDbEntity
100
AcDbPoint
  8
UPME_LineaTransmisionBogotaSplitNodoZ3D
420
     0
 10
4883428.97659639455378056
 20
2063371.54543717508204281
 30
3338.1123046875
  0
POINT
  5
12a
100
AcDbEntity
100
AcDbPoint
  8
UPME_LineaTransmisionBogotaSplitNodoZ3D
420
     0
 10
4883358.64364009536802769
 20
2063243.83900127839297056
 30
3318.072998046875
  0
POINT
  5
12b
100
AcDbEntity
100
AcDbPoint
  8
UPME_LineaTransmisionBogotaSplitNodoZ3D
420
     0
 10
4883236.20398044306784868
 20
2063021.06192758050747216
 30
3248.81689453125
  0
POINT
  5
12c
100
AcDbEntity
100
AcDbPoint
  8
UPME_LineaTransmisionBogotaSplitNodoZ3D
420
     0
 10
4883236.20398044306784868
 20
2063021.06192758050747216
 30
3248.81689453125
  0
POINT
  5
12d
100
AcDbEntity
100
AcDbPoint
  8
UPME_LineaTransmisionBogotaSplitNodoZ3D
420
     0
 10
4883043.54247512761503458
 20
2062670.51728795608505607
 30
3270.306884765625
  0
POINT
  5
12e
100
AcDbEntity
100
AcDbPoint
  8
UPME_LineaTransmisionBogotaSplitNodoZ3D
420
     0
 10
4883043.54247512761503458
 20
2062670.51728795608505607
 30
3270.306884765625
  0
POINT
  5
12f
100
AcDbEntity
100
AcDbPoint
  8
UPME_LineaTransmisionBogotaSplitNodoZ3D
420
     0
 10
4882949.7837931988760829
 20
2062499.92481119511649013
 30
3270.528076171875
  0
POINT
  5
130
100
AcDbEntity
100
AcDbPoint
  8
UPME_LineaTransmisionBogotaSplitNodoZ3D
420
     0
 10
4882851.3821753328666091
 20
2062319.69809010601602495
 30
3164.3642578125
  0
POINT
  5
131
100
AcDbEntity
100
AcDbPoint
  8
UPME_LineaTransmisionBogotaSplitNodoZ3D
420
     0
 10
4882851.3821753328666091
 20
2062319.69809010601602495
 30
3164.3642578125
  0
POINT
  5
132
100
AcDbEntity
100
AcDbPoint
  8
UPME_LineaTransmisionBogotaSplitNodoZ3D
420
     0
 10
4882659.69701231736689806
 20
2061968.61861437442712486
 30
3113.43359375
  0
POINT
  5
133
100
AcDbEntity
100
AcDbPoint
  8
UPME_LineaTransmisionBogotaSplitNodoZ3D
420
     0
 10
4882659.69701231736689806
 20
2061968.61861437442712486
 30
3113.43359375
  0
POINT
  5
134
100
AcDbEntity
100
AcDbPoint
  8
UPME_LineaTransmisionBogotaSplitNodoZ3D
420
     0
 10
4882634.11509672738611698
 20
2061921.76425500516779721
 30
3110.281494140625
  0
POINT
  5
135
100
AcDbEntity
100
AcDbPoint
  8
UPME_LineaTransmisionBogotaSplitNodoZ3D
420
     0
 10
4882467.2307104617357254
 20
2061617.96693465602584183
 30
2951.689453125
  0
POINT
  5
136
100
AcDbEntity
100
AcDbPoint
  8
UPME_LineaTransmisionBogotaSplitNodoZ3D
420
     0
 10
4882467.2307104617357254
 20
2061617.96693465602584183
 30
2951.689453125
  0
POINT
  5
137
100
AcDbEntity
100
AcDbPoint
  8
UPME_LineaTransmisionBogotaSplitNodoZ3D
420
     0
 10
4882274.64410374499857426
 20
2061267.38114071451127529
 30
3027.783935546875
  0
POINT
  5
138
100
AcDbEntity
100
AcDbPoint
  8
UPME_LineaTransmisionBogotaSplitNodoZ3D
420
     0
 10
4882274.64410374499857426
 20
2061267.38114071451127529
 30
3027.783935546875
  0
POINT
  5
139
100
AcDbEntity
100
AcDbPoint
  8
UPME_LineaTransmisionBogotaSplitNodoZ3D
420
     0
 10
4882089.97305843140929937
 20
2060931.20488140266388655
 30
3262.560546875
  0
POINT
  5
13a
100
AcDbEntity
100
AcDbPoint
  8
UPME_LineaTransmisionBogotaSplitNodoZ3D
420
     0
 10
4882082.10088428389281034
 20
2060916.77159782801754773
 30
3262.560546875
  0
POINT
  5
13b
100
AcDbEntity
100
AcDbPoint
  8
UPME_LineaTransmisionBogotaSplitNodoZ3D
420
     0
 10
4882082.10088428389281034
 20
2060916.77159782801754773
 30
3262.560546875
  0
POINT
  5
13c
100
AcDbEntity
100
AcDbPoint
  8
UPME_LineaTransmisionBogotaSplitNodoZ3D
420
     0
 10
4881890.56989494059234858
 20
2060565.6079890625551343
 30
3334.756103515625
  0
POINT
  5
13d
100
AcDbEntity
100
AcDbPoint
  8
UPME_LineaTransmisionBogotaSplitNodoZ3D
420
     0
 10
4881890.56989494059234858
 20
2060565.6079890625551343
 30
3334.756103515625
  0
POINT
  5
13e
100
AcDbEntity
100
AcDbPoint
  8
UPME_LineaTransmisionBogotaSplitNodoZ3D
420
     0
 10
4881889.54907515831291676
 20
2060563.73636108264327049
 30
3334.756103515625
  0
POINT
  5
13f
100
AcDbEntity
100
AcDbPoint
  8
UPME_LineaTransmisionBogotaSplitNodoZ3D
420
     0
 10
4881754.1231480659916997
 20
2060222.15389028424397111
 30
3358.89306640625
  0
POINT
  5
140
100
AcDbEntity
100
AcDbPoint
  8
UPME_LineaTransmisionBogotaSplitNodoZ3D
420
     0
 10
4881742.93941843695938587
 20
2060193.86528816353529692
 30
3333.660400390625
  0
POINT
  5
141
100
AcDbEntity
100
AcDbPoint
  8
UPME_LineaTransmisionBogotaSplitNodoZ3D
420
     0
 10
4881742.93941843695938587
 20
2060193.86528816353529692
 30
3333.660400390625
  0
POINT
  5
142
100
AcDbEntity
100
AcDbPoint
  8
UPME_LineaTransmisionBogotaSplitNodoZ3D
420
     0
 10
4881605.6549453753978014
 20
2059846.61209406098350883
 30
3354.662109375
  0
POINT
  5
143
100
AcDbEntity
100
AcDbPoint
  8
UPME_LineaTransmisionBogotaSplitNodoZ3D
420
     0
 10
4881595.83149321936070919
 20
2059821.8985906234011054
 30
3337.658203125
  0
POINT
  5
144
100
AcDbEntity
100
AcDbPoint
  8
UPME_LineaTransmisionBogotaSplitNodoZ3D
420
     0
 10
4881595.83149321936070919
 20
2059821.8985906234011054
 30
3337.658203125
  0
POINT
  5
145
100
AcDbEntity
100
AcDbPoint
  8
UPME_LineaTransmisionBogotaSplitNodoZ3D
420
     0
 10
4881448.07881705369800329
 20
2059450.18748413654975593
 30
3346.348876953125
  0
POINT
  5
146
100
AcDbEntity
100
AcDbPoint
  8
UPME_LineaTransmisionBogotaSplitNodoZ3D
420
     0
 10
4881448.07881705369800329
 20
2059450.18748413654975593
 30
3346.348876953125
  0
POINT
  5
147
100
AcDbEntity
100
AcDbPoint
  8
UPME_LineaTransmisionBogotaSplitNodoZ3D
420
     0
 10
4881361.89194881450384855
 20
2059233.36152206966653466
 30
3396.838623046875
  0
POINT
  5
148
100
AcDbEntity
100
AcDbPoint
  8
UPME_LineaTransmisionBogotaSplitNodoZ3D
420
     0
 10
4881301.01660418603569269
 20
2059078.20370214385911822
 30
3367.9716796875
  0
POINT
  5
149
100
AcDbEntity
100
AcDbPoint
  8
UPME_LineaTransmisionBogotaSplitNodoZ3D
420
     0
 10
4881301.01660418603569269
 20
2059078.20370214385911822
 30
3367.9716796875
  0
POINT
  5
14a
100
AcDbEntity
100
AcDbPoint
  8
UPME_LineaTransmisionBogotaSplitNodoZ3D
420
     0
 10
4881261.57341677322983742
 20
2058977.67172146681696177
 30
3402.880126953125
  0
POINT
  5
14b
100
AcDbEntity
100
AcDbPoint
  8
UPME_LineaTransmisionBogotaSplitNodoZ3D
420
     0
 10
4881177.46089244727045298
 20
2058866.86669279099442065
 30
3410.795654296875
  0
POINT
  5
14c
100
AcDbEntity
100
AcDbPoint
  8
UPME_LineaTransmisionBogotaSplitNodoZ3D
420
     0
 10
4881084.84801024198532104
 20
2058745.21463633305393159
 30
3288.092529296875
  0
POINT
  5
14d
100
AcDbEntity
100
AcDbPoint
  8
UPME_LineaTransmisionBogotaSplitNodoZ3D
420
     0
 10
4881084.84801024198532104
 20
2058745.21463633305393159
 30
3288.092529296875
  0
POINT
  5
14e
100
AcDbEntity
100
AcDbPoint
  8
UPME_LineaTransmisionBogotaSplitNodoZ3D
420
     0
 10
4880842.55389496404677629
 20
2058426.94814154994674027
 30
3293.8271484375
  0
POINT
  5
14f
100
AcDbEntity
100
AcDbPoint
  8
UPME_LineaTransmisionBogotaSplitNodoZ3D
420
     0
 10
4880842.55389496404677629
 20
2058426.94814154994674027
 30
3293.8271484375
  0
POINT
  5
150
100
AcDbEntity
100
AcDbPoint
  8
UPME_LineaTransmisionBogotaSplitNodoZ3D
420
     0
 10
4880688.8101427061483264
 20
2058224.99736338248476386
 30
3323.47119140625
  0
POINT
  5
151
100
AcDbEntity
100
AcDbPoint
  8
UPME_LineaTransmisionBogotaSplitNodoZ3D
420
     0
 10
4880600.27687264885753393
 20
2058108.66863599373027682
 30
3287.8544921875
  0
POINT
  5
152
100
AcDbEntity
100
AcDbPoint
  8
UPME_LineaTransmisionBogotaSplitNodoZ3D
420
     0
 10
4880600.27687264885753393
 20
2058108.66863599373027682
 30
3287.8544921875
  0
POINT
  5
153
100
AcDbEntity
100
AcDbPoint
  8
UPME_LineaTransmisionBogotaSplitNodoZ3D
420
     0
 10
4880405.43279588501900434
 20
2057852.6522991459351033
 30
3293.69287109375
  0
POINT
  5
154
100
AcDbEntity
100
AcDbPoint
  8
UPME_LineaTransmisionBogotaSplitNodoZ3D
420
     0
 10
4880358.03560645505785942
 20
2057790.361914869165048
 30
3272.659912109375
  0
POINT
  5
155
100
AcDbEntity
100
AcDbPoint
  8
UPME_LineaTransmisionBogotaSplitNodoZ3D
420
     0
 10
4880358.03560645505785942
 20
2057790.361914869165048
 30
3272.659912109375
  0
POINT
  5
156
100
AcDbEntity
100
AcDbPoint
  8
UPME_LineaTransmisionBogotaSplitNodoZ3D
420
     0
 10
4880115.81932631973177195
 20
2057472.03617975278757513
 30
3198.649169921875
  0
POINT
  5
157
100
AcDbEntity
100
AcDbPoint
  8
UPME_LineaTransmisionBogotaSplitNodoZ3D
420
     0
 10
4880115.81932631973177195
 20
2057472.03617975278757513
 30
3198.649169921875
  0
POINT
  5
158
100
AcDbEntity
100
AcDbPoint
  8
UPME_LineaTransmisionBogotaSplitNodoZ3D
420
     0
 10
4879961.84227925445884466
 20
2057269.67630257690325379
 30
3218.96826171875
  0
POINT
  5
159
100
AcDbEntity
100
AcDbPoint
  8
UPME_LineaTransmisionBogotaSplitNodoZ3D
420
     0
 10
4879874.97802723105996847
 20
2057152.67696847207844257
 30
3173.587158203125
  0
POINT
  5
15a
100
AcDbEntity
100
AcDbPoint
  8
UPME_LineaTransmisionBogotaSplitNodoZ3D
420
     0
 10
4879874.97802723105996847
 20
2057152.67696847207844257
 30
3173.587158203125
  0
POINT
  5
15b
100
AcDbEntity
100
AcDbPoint
  8
UPME_LineaTransmisionBogotaSplitNodoZ3D
420
     0
 10
4879736.53154717013239861
 20
2056966.20041915657930076
 30
3126.843017578125
  0
POINT
  5
15c
100
AcDbEntity
100
AcDbPoint
  8
UPME_LineaTransmisionBogotaSplitNodoZ3D
420
     0
 10
4879637.15598506573587656
 20
2056831.05630106735043228
 30
3119.813232421875
  0
POINT
  5
15d
100
AcDbEntity
100
AcDbPoint
  8
UPME_LineaTransmisionBogotaSplitNodoZ3D
420
     0
 10
4879637.15598506573587656
 20
2056831.05630106735043228
 30
3119.813232421875
  0
POINT
  5
15e
100
AcDbEntity
100
AcDbPoint
  8
UPME_LineaTransmisionBogotaSplitNodoZ3D
420
     0
 10
4879430.69156251288950443
 20
2056550.27849501674063504
 30
3099.6796875
  0
POINT
  5
15f
100
AcDbEntity
100
AcDbPoint
  8
UPME_LineaTransmisionBogotaSplitNodoZ3D
420
     0
 10
4879400.10791301913559437
 20
2056508.8635990098118782
 30
3091.3330078125
  0
POINT
  5
160
100
AcDbEntity
100
AcDbPoint
  8
UPME_LineaTransmisionBogotaSplitNodoZ3D
420
     0
 10
4879400.10791301913559437
 20
2056508.8635990098118782
 30
3091.3330078125
  0
POINT
  5
161
100
AcDbEntity
100
AcDbPoint
  8
UPME_LineaTransmisionBogotaSplitNodoZ3D
420
     0
 10
4879162.48898401763290167
 20
2056187.09156078961677849
 30
3058.05859375
  0
POINT
  5
162
100
AcDbEntity
100
AcDbPoint
  8
UPME_LineaTransmisionBogotaSplitNodoZ3D
420
     0
 10
4879162.48898401763290167
 20
2056187.09156078961677849
 30
3058.05859375
  0
POINT
  5
163
100
AcDbEntity
100
AcDbPoint
  8
UPME_LineaTransmisionBogotaSplitNodoZ3D
420
     0
 10
4879140.70164786372333765
 20
2056157.58820602251216769
 30
3053.54638671875
  0
POINT
  5
164
100
AcDbEntity
100
AcDbPoint
  8
UPME_LineaTransmisionBogotaSplitNodoZ3D
420
     0
 10
4878798.19061631895601749
 20
2056036.3840267697814852
 30
3006.948486328125
  0
POINT
  5
165
100
AcDbEntity
100
AcDbPoint
  8
UPME_LineaTransmisionBogotaSplitNodoZ3D
420
     0
 10
4878798.19061631895601749
 20
2056036.3840267697814852
 30
3006.948486328125
  0
POINT
  5
166
100
AcDbEntity
100
AcDbPoint
  8
UPME_LineaTransmisionBogotaSplitNodoZ3D
420
     0
 10
4878631.86588085535913706
 20
2055977.52678949944674969
 30
3023.3427734375
  0
POINT
  5
167
100
AcDbEntity
100
AcDbPoint
  8
UPME_LineaTransmisionBogotaSplitNodoZ3D
420
     0
 10
4878417.03827707376331091
 20
2055915.62402484007179737
 30
2942.133544921875
  0
POINT
  5
168
100
AcDbEntity
100
AcDbPoint
  8
UPME_LineaTransmisionBogotaSplitNodoZ3D
420
     0
 10
4878417.03827707376331091
 20
2055915.62402484007179737
 30
2942.133544921875
  0
POINT
  5
169
100
AcDbEntity
100
AcDbPoint
  8
UPME_LineaTransmisionBogotaSplitNodoZ3D
420
     0
 10
4878365.20983588229864836
 20
2055900.689613520167768
 30
2920.897216796875
  0
POINT
  5
16a
100
AcDbEntity
100
AcDbPoint
  8
UPME_LineaTransmisionBogotaSplitNodoZ3D
420
     0
 10
4878032.73682282399386168
 20
2055804.66283785947598517
 30
2808.9990234375
  0
POINT
  5
16b
100
AcDbEntity
100
AcDbPoint
  8
UPME_LineaTransmisionBogotaSplitNodoZ3D
420
     0
 10
4878032.73682282399386168
 20
2055804.66283785947598517
 30
2808.9990234375
  0
POINT
  5
16c
100
AcDbEntity
100
AcDbPoint
  8
UPME_LineaTransmisionBogotaSplitNodoZ3D
420
     0
 10
4877658.74955354817211628
 20
2055696.6456749732606113
 30
2783.869140625
  0
POINT
  5
16d
100
AcDbEntity
100
AcDbPoint
  8
UPME_LineaTransmisionBogotaSplitNodoZ3D
420
     0
 10
4877648.44018474314361811
 20
2055693.68498254264704883
 30
2785.366455078125
  0
POINT
  5
16e
100
AcDbEntity
100
AcDbPoint
  8
UPME_LineaTransmisionBogotaSplitNodoZ3D
420
     0
 10
4877648.44018474314361811
 20
2055693.68498254264704883
 30
2785.366455078125
  0
POINT
  5
16f
100
AcDbEntity
100
AcDbPoint
  8
UPME_LineaTransmisionBogotaSplitNodoZ3D
420
     0
 10
4877524.64300590008497238
 20
2055658.13233356224372983
 30
2780.051025390625
  0
POINT
  5
170
100
AcDbEntity
100
AcDbPoint
  8
UPME_LineaTransmisionBogotaSplitNodoZ3D
420
     0
 10
4877373.98241701070219278
 20
2055615.11767955054529011
 30
2781.043701171875
  0
POINT
  5
171
100
AcDbEntity
100
AcDbPoint
  8
UPME_LineaTransmisionBogotaSplitNodoZ3D
420
     0
 10
4877263.55167889315634966
 20
2055584.79542665788903832
 30
2777.581298828125
  0
POINT
  5
172
100
AcDbEntity
100
AcDbPoint
  8
UPME_LineaTransmisionBogotaSplitNodoZ3D
420
     0
 10
4877263.55167889315634966
 20
2055584.79542665788903832
 30
2777.581298828125
  0
POINT
  5
173
100
AcDbEntity
100
AcDbPoint
  8
UPME_LineaTransmisionBogotaSplitNodoZ3D
420
     0
 10
4877016.3731925692409277
 20
2055516.92475315066985786
 30
2765.870361328125
  0
POINT
  5
174
100
AcDbEntity
100
AcDbPoint
  8
UPME_LineaTransmisionBogotaSplitNodoZ3D
420
     0
 10
4876877.9469347046688199
 20
2055478.4533979098778218
 30
2767.96240234375
  0
POINT
  5
175
100
AcDbEntity
100
AcDbPoint
  8
UPME_LineaTransmisionBogotaSplitNodoZ3D
420
     0
 10
4876877.9469347046688199
 20
2055478.4533979098778218
 30
2767.96240234375
  0
POINT
  5
176
100
AcDbEntity
100
AcDbPoint
  8
UPME_LineaTransmisionBogotaSplitNodoZ3D
420
     0
 10
4876786.37697855848819017
 20
2055453.00432223174721003
 30
2769.38037109375
  0
POINT
  5
177
100
AcDbEntity
100
AcDbPoint
  8
UPME_LineaTransmisionBogotaSplitNodoZ3D
420
     0
 10
4876550.67440689913928509
 20
2055396.16262985882349312
 30
2763.263427734375
  0
POINT
  5
178
100
AcDbEntity
100
AcDbPoint
  8
UPME_LineaTransmisionBogotaSplitNodoZ3D
420
     0
 10
4876488.17964184377342463
 20
2055396.95363613869994879
 30
2757.43798828125
  0
POINT
  5
179
100
AcDbEntity
100
AcDbPoint
  8
UPME_LineaTransmisionBogotaSplitNodoZ3D
420
     0
 10
4876488.17964184377342463
 20
2055396.95363613869994879
 30
2757.43798828125
  0
POINT
  5
17a
100
AcDbEntity
100
AcDbPoint
  8
UPME_LineaTransmisionBogotaSplitNodoZ3D
420
     0
 10
4876088.21167873777449131
 20
2055402.01609489507973194
 30
2694.4375
  0
POINT
  5
17b
100
AcDbEntity
100
AcDbPoint
  8
UPME_LineaTransmisionBogotaSplitNodoZ3D
420
     0
 10
4876088.21167873777449131
 20
2055402.01609489507973194
 30
2694.4375
  0
POINT
  5
17c
100
AcDbEntity
100
AcDbPoint
  8
UPME_LineaTransmisionBogotaSplitNodoZ3D
420
     0
 10
4875972.07923616003245115
 20
2055403.4860018752515316
 30
2698.283447265625
  0
POINT
  5
17d
100
AcDbEntity
100
AcDbPoint
  8
UPME_LineaTransmisionBogotaSplitNodoZ3D
420
     0
 10
4875726.17546180542558432
 20
2055261.68740209355019033
 30
2648.762939453125
  0
POINT
  5
17e
100
AcDbEntity
100
AcDbPoint
  8
UPME_LineaTransmisionBogotaSplitNodoZ3D
420
     0
 10
4875726.17546180542558432
 20
2055261.68740209355019033
 30
2648.762939453125
  0
POINT
  5
17f
100
AcDbEntity
100
AcDbPoint
  8
UPME_LineaTransmisionBogotaSplitNodoZ3D
420
     0
 10
4875379.65917108301073313
 20
2055061.87133601284585893
 30
2655.728759765625
  0
POINT
  5
180
100
AcDbEntity
100
AcDbPoint
  8
UPME_LineaTransmisionBogotaSplitNodoZ3D
420
     0
 10
4875379.65917108301073313
 20
2055061.87133601284585893
 30
2655.728759765625
  0
POINT
  5
181
100
AcDbEntity
100
AcDbPoint
  8
UPME_LineaTransmisionBogotaSplitNodoZ3D
420
     0
 10
4875336.38270726427435875
 20
2055036.9162819916382432
 30
2669.875244140625
  0
POINT
  5
182
100
AcDbEntity
100
AcDbPoint
  8
UPME_LineaTransmisionBogotaSplitNodoZ3D
420
     0
 10
4874989.77071001660078764
 20
2055085.81300502014346421
 30
2681.603271484375
  0
POINT
  5
183
100
AcDbEntity
100
AcDbPoint
  8
UPME_LineaTransmisionBogotaSplitNodoZ3D
420
     0
 10
4874989.77071001660078764
 20
2055085.81300502014346421
 30
2681.603271484375
  0
POINT
  5
184
100
AcDbEntity
100
AcDbPoint
  8
UPME_LineaTransmisionBogotaSplitNodoZ3D
420
     0
 10
4874593.6924480265006423
 20
2055141.68795807380229235
 30
2780.93310546875
  0
POINT
  5
185
100
AcDbEntity
100
AcDbPoint
  8
UPME_LineaTransmisionBogotaSplitNodoZ3D
420
     0
 10
4874593.6924480265006423
 20
2055141.68795807380229235
 30
2780.93310546875
  0
POINT
  5
186
100
AcDbEntity
100
AcDbPoint
  8
UPME_LineaTransmisionBogotaSplitNodoZ3D
420
     0
 10
4874470.0907810227945447
 20
2055159.12450535246171057
 30
2834.15673828125
  0
POINT
  5
187
100
AcDbEntity
100
AcDbPoint
  8
UPME_LineaTransmisionBogotaSplitNodoZ3D
420
     0
 10
4874303.0149439861997962
 20
2055377.77187106409110129
 30
2821.26806640625
  0
POINT
  5
188
100
AcDbEntity
100
AcDbPoint
  8
UPME_LineaTransmisionBogotaSplitNodoZ3D
420
     0
 10
4874303.0149439861997962
 20
2055377.77187106409110129
 30
2821.26806640625
  0
POINT
  5
189
100
AcDbEntity
100
AcDbPoint
  8
UPME_LineaTransmisionBogotaSplitNodoZ3D
420
     0
 10
4874269.78176630474627018
 20
2055421.26317946147173643
 30
2839.1513671875
  0
POINT
  5
18a
100
AcDbEntity
100
AcDbPoint
  8
UPME_LineaTransmisionBogotaSplitNodoZ3D
420
     0
 10
4873925.84406461473554373
 20
2055451.506615552585572
 30
2826.282470703125
  0
POINT
  5
18b
100
AcDbEntity
100
AcDbPoint
  8
UPME_LineaTransmisionBogotaSplitNodoZ3D
420
     0
 10
4873925.84406461473554373
 20
2055451.506615552585572
 30
2826.282470703125
  0
POINT
  5
18c
100
AcDbEntity
100
AcDbPoint
  8
UPME_LineaTransmisionBogotaSplitNodoZ3D
420
     0
 10
4873899.87323239725083113
 20
2055453.79030588525347412
 30
2833.659912109375
  0
POINT
  5
18d
100
AcDbEntity
100
AcDbPoint
  8
UPME_LineaTransmisionBogotaSplitNodoZ3D
420
     0
 10
4873526.08384674414992332
 20
2055464.0059235505759716
 30
2829.635986328125
  0
POINT
  5
18e
100
AcDbEntity
100
AcDbPoint
  8
UPME_LineaTransmisionBogotaSplitNodoZ3D
420
     0
 10
4873526.08384674414992332
 20
2055464.0059235505759716
 30
2829.635986328125
  0
POINT
  5
18f
100
AcDbEntity
100
AcDbPoint
  8
UPME_LineaTransmisionBogotaSplitNodoZ3D
420
     0
 10
4873281.27237005811184645
 20
2055470.69659092067740858
 30
2853.28466796875
  0
POINT
  5
190
100
AcDbEntity
100
AcDbPoint
  8
UPME_LineaTransmisionBogotaSplitNodoZ3D
420
     0
 10
4873151.13284704089164734
 20
2055555.06968470802530646
 30
2854.696044921875
  0
POINT
  5
191
100
AcDbEntity
100
AcDbPoint
  8
UPME_LineaTransmisionBogotaSplitNodoZ3D
420
     0
 10
4873151.13284704089164734
 20
2055555.06968470802530646
 30
2854.696044921875
  0
POINT
  5
192
100
AcDbEntity
100
AcDbPoint
  8
UPME_LineaTransmisionBogotaSplitNodoZ3D
420
     0
 10
4872988.67905620392411947
 20
2055660.39302240428514779
 30
2870.750732421875
  0
POINT
  5
193
100
AcDbEntity
100
AcDbPoint
  8
UPME_LineaTransmisionBogotaSplitNodoZ3D
420
     0
 10
4872857.9344121003523469
 20
2055745.1583721567876637
 30
2885.278564453125
  0
POINT
  5
194
100
AcDbEntity
100
AcDbPoint
  8
UPME_LineaTransmisionBogotaSplitNodoZ3D
420
     0
 10
4872815.44192569330334663
 20
2055772.58181901136413217
 30
2885.760498046875
  0
POINT
  5
195
100
AcDbEntity
100
AcDbPoint
  8
UPME_LineaTransmisionBogotaSplitNodoZ3D
420
     0
 10
4872815.44192569330334663
 20
2055772.58181901136413217
 30
2885.760498046875
  0
POINT
  5
196
100
AcDbEntity
100
AcDbPoint
  8
UPME_LineaTransmisionBogotaSplitNodoZ3D
420
     0
 10
4872516.46668398752808571
 20
2055965.53196961246430874
 30
2922.47998046875
  0
POINT
  5
197
100
AcDbEntity
100
AcDbPoint
  8
UPME_LineaTransmisionBogotaSplitNodoZ3D
420
     0
 10
4872479.37250787485390902
 20
2055989.50885391375049949
 30
2928.814453125
  0
POINT
  5
198
100
AcDbEntity
100
AcDbPoint
  8
UPME_LineaTransmisionBogotaSplitNodoZ3D
420
     0
 10
4872479.37250787485390902
 20
2055989.50885391375049949
 30
2928.814453125
  0
POINT
  5
199
100
AcDbEntity
100
AcDbPoint
  8
UPME_LineaTransmisionBogotaSplitNodoZ3D
420
     0
 10
4872143.44027228839695454
 20
2056206.64828629279509187
 30
2949.135986328125
  0
POINT
  5
19a
100
AcDbEntity
100
AcDbPoint
  8
UPME_LineaTransmisionBogotaSplitNodoZ3D
420
     0
 10
4872143.44027228839695454
 20
2056206.64828629279509187
 30
2949.135986328125
  0
POINT
  5
19b
100
AcDbEntity
100
AcDbPoint
  8
UPME_LineaTransmisionBogotaSplitNodoZ3D
420
     0
 10
4872115.09271931368857622
 20
2056224.97153994394466281
 30
2948.59912109375
  0
POINT
  5
19c
100
AcDbEntity
100
AcDbPoint
  8
UPME_LineaTransmisionBogotaSplitNodoZ3D
420
     0
 10
4871807.57588101085275412
 20
2056423.89264003536663949
 30
2994.4375
  0
POINT
  5
19d
100
AcDbEntity
100
AcDbPoint
  8
UPME_LineaTransmisionBogotaSplitNodoZ3D
420
     0
 10
4871807.57588101085275412
 20
2056423.89264003536663949
 30
2994.4375
  0
POINT
  5
19e
100
AcDbEntity
100
AcDbPoint
  8
UPME_LineaTransmisionBogotaSplitNodoZ3D
420
     0
 10
4871552.96965792309492826
 20
2056588.58784913760609925
 30
3055.856201171875
  0
POINT
  5
19f
100
AcDbEntity
100
AcDbPoint
  8
UPME_LineaTransmisionBogotaSplitNodoZ3D
420
     0
 10
4871473.44344023987650871
 20
2056643.72298719477839768
 30
3063.0048828125
  0
POINT
  5
1a0
100
AcDbEntity
100
AcDbPoint
  8
UPME_LineaTransmisionBogotaSplitNodoZ3D
420
     0
 10
4871473.44344023987650871
 20
2056643.72298719477839768
 30
3063.0048828125
  0
POINT
  5
1a1
100
AcDbEntity
100
AcDbPoint
  8
UPME_LineaTransmisionBogotaSplitNodoZ3D
420
     0
 10
4871171.59054169617593288
 20
2056852.99612653278745711
 30
3064.986083984375
  0
POINT
  5
1a2
100
AcDbEntity
100
AcDbPoint
  8
UPME_LineaTransmisionBogotaSplitNodoZ3D
420
     0
 10
4871144.73722039349377155
 20
2056871.65325939026661217
 30
3060.0166015625
  0
POINT
  5
1a3
100
AcDbEntity
100
AcDbPoint
  8
UPME_LineaTransmisionBogotaSplitNodoZ3D
420
     0
 10
4871144.73722039349377155
 20
2056871.65325939026661217
 30
3060.0166015625
  0
POINT
  5
1a4
100
AcDbEntity
100
AcDbPoint
  8
UPME_LineaTransmisionBogotaSplitNodoZ3D
420
     0
 10
4870889.05091026984155178
 20
2057049.29882524604909122
 30
3046.8408203125
  0
POINT
  5
1a5
100
AcDbEntity
100
AcDbPoint
  8
UPME_LineaTransmisionBogotaSplitNodoZ3D
420
     0
 10
4870816.30651663802564144
 20
2057099.98027555528096855
 30
3040.04150390625
  0
POINT
  5
1a6
100
AcDbEntity
100
AcDbPoint
  8
UPME_LineaTransmisionBogotaSplitNodoZ3D
420
     0
 10
4870816.30651663802564144
 20
2057099.98027555528096855
 30
3040.04150390625
  0
POINT
  5
1a7
100
AcDbEntity
100
AcDbPoint
  8
UPME_LineaTransmisionBogotaSplitNodoZ3D
420
     0
 10
4870488.10664589330554008
 20
2057328.63907123799435794
 30
3026.374755859375
  0
POINT
  5
1a8
100
AcDbEntity
100
AcDbPoint
  8
UPME_LineaTransmisionBogotaSplitNodoZ3D
420
     0
 10
4870488.10664589330554008
 20
2057328.63907123799435794
 30
3026.374755859375
  0
POINT
  5
1a9
100
AcDbEntity
100
AcDbPoint
  8
UPME_LineaTransmisionBogotaSplitNodoZ3D
420
     0
 10
4870398.85085614118725061
 20
2057390.8241091116797179
 30
3034.326904296875
  0
POINT
  5
1aa
100
AcDbEntity
100
AcDbPoint
  8
UPME_LineaTransmisionBogotaSplitNodoZ3D
420
     0
 10
4870159.75595998112112284
 20
2057557.0811886927112937
 30
3053.72998046875
  0
POINT
  5
1ab
100
AcDbEntity
100
AcDbPoint
  8
UPME_LineaTransmisionBogotaSplitNodoZ3D
420
     0
 10
4870159.75595998112112284
 20
2057557.0811886927112937
 30
3053.72998046875
  0
POINT
  5
1ac
100
AcDbEntity
100
AcDbPoint
  8
UPME_LineaTransmisionBogotaSplitNodoZ3D
420
     0
 10
4869946.58758494351059198
 20
2057705.30999684310518205
 30
3150.423583984375
  0
POINT
  5
1ad
100
AcDbEntity
100
AcDbPoint
  8
UPME_LineaTransmisionBogotaSplitNodoZ3D
420
     0
 10
4869831.1892416151240468
 20
2057785.21221776423044503
 30
3127.445068359375
  0
POINT
  5
1ae
100
AcDbEntity
100
AcDbPoint
  8
UPME_LineaTransmisionBogotaSplitNodoZ3D
420
     0
 10
4869831.1892416151240468
 20
2057785.21221776423044503
 30
3127.445068359375
  0
POINT
  5
1af
100
AcDbEntity
100
AcDbPoint
  8
UPME_LineaTransmisionBogotaSplitNodoZ3D
420
     0
 10
4869508.29936489183455706
 20
2058008.78231001272797585
 30
3155.172119140625
  0
POINT
  5
1b0
100
AcDbEntity
100
AcDbPoint
  8
UPME_LineaTransmisionBogotaSplitNodoZ3D
420
     0
 10
4869510.532549187541008
 20
2058015.69465867592953146
 30
3155.172119140625
  0
POINT
  5
1b1
100
AcDbEntity
100
AcDbPoint
  8
UPME_LineaTransmisionBogotaSplitNodoZ3D
420
     0
 10
4869510.532549187541008
 20
2058015.69465867592953146
 30
3155.172119140625
  0
POINT
  5
1b2
100
AcDbEntity
100
AcDbPoint
  8
UPME_LineaTransmisionBogotaSplitNodoZ3D
420
     0
 10
4869517.33566225226968527
 20
2058036.75225324393250048
 30
3141.373046875
  0
POINT
  5
1b3
100
AcDbEntity
100
AcDbPoint
  8
UPME_LineaTransmisionBogotaSplitNodoZ3D
420
     0
 10
4869643.27470175176858902
 20
2058393.01851061568595469
 30
3051.66748046875
  0
POINT
  5
1b4
100
AcDbEntity
100
AcDbPoint
  8
UPME_LineaTransmisionBogotaSplitNodoZ3D
420
     0
 10
4869643.27470175176858902
 20
2058393.01851061568595469
 30
3051.66748046875
  0
POINT
  5
1b5
100
AcDbEntity
100
AcDbPoint
  8
UPME_LineaTransmisionBogotaSplitNodoZ3D
420
     0
 10
4869740.1427919939160347
 20
2058667.04658091557212174
 30
3067.64697265625
  0
POINT
  5
1b6
100
AcDbEntity
100
AcDbPoint
  8
UPME_LineaTransmisionBogotaSplitNodoZ3D
420
     0
 10
4869776.32072106655687094
 20
2058770.24329977249726653
 30
3062.53271484375
  0
POINT
  5
1b7
100
AcDbEntity
100
AcDbPoint
  8
UPME_LineaTransmisionBogotaSplitNodoZ3D
420
     0
 10
4869776.32072106655687094
 20
2058770.24329977249726653
 30
3062.53271484375
  0
POINT
  5
1b8
100
AcDbEntity
100
AcDbPoint
  8
UPME_LineaTransmisionBogotaSplitNodoZ3D
420
     0
 10
4869863.68470176495611668
 20
2059019.44706530962139368
 30
3071.854248046875
  0
POINT
  5
1b9
100
AcDbEntity
100
AcDbPoint
  8
UPME_LineaTransmisionBogotaSplitNodoZ3D
420
     0
 10
4869908.98125483002513647
 20
2059147.6038012292701751
 30
3061.755859375
  0
POINT
  5
1ba
100
AcDbEntity
100
AcDbPoint
  8
UPME_LineaTransmisionBogotaSplitNodoZ3D
420
     0
 10
4869908.98125483002513647
 20
2059147.6038012292701751
 30
3061.755859375
  0
POINT
  5
1bb
100
AcDbEntity
100
AcDbPoint
  8
UPME_LineaTransmisionBogotaSplitNodoZ3D
420
     0
 10
4870011.50016022194176912
 20
2059437.65872585168108344
 30
3052.681884765625
  0
POINT
  5
1bc
100
AcDbEntity
100
AcDbPoint
  8
UPME_LineaTransmisionBogotaSplitNodoZ3D
420
     0
 10
4870042.22203813958913088
 20
2059524.76011048234067857
 30
3041.733642578125
  0
POINT
  5
1bd
100
AcDbEntity
100
AcDbPoint
  8
UPME_LineaTransmisionBogotaSplitNodoZ3D
420
     0
 10
4870042.22203813958913088
 20
2059524.76011048234067857
 30
3041.733642578125
  0
POINT
  5
1be
100
AcDbEntity
100
AcDbPoint
  8
UPME_LineaTransmisionBogotaSplitNodoZ3D
420
     0
 10
4870175.27387935761362314
 20
2059901.98313145083375275
 30
2970.379150390625
  0
POINT
  5
1bf
100
AcDbEntity
100
AcDbPoint
  8
UPME_LineaTransmisionBogotaSplitNodoZ3D
420
     0
 10
4870175.27387935761362314
 20
2059901.98313145083375275
 30
2970.379150390625
  0
POINT
  5
1c0
100
AcDbEntity
100
AcDbPoint
  8
UPME_LineaTransmisionBogotaSplitNodoZ3D
420
     0
 10
4870195.08030416071414948
 20
2059958.13747948920354247
 30
2971.294677734375
  0
POINT
  5
1c1
100
AcDbEntity
100
AcDbPoint
  8
UPME_LineaTransmisionBogotaSplitNodoZ3D
420
     0
 10
4870308.97876355983316898
 20
2060278.97506772098131478
 30
2936.8232421875
  0
POINT
  5
1c2
100
AcDbEntity
100
AcDbPoint
  8
UPME_LineaTransmisionBogotaSplitNodoZ3D
420
     0
 10
4870308.97876355983316898
 20
2060278.97506772098131478
 30
2936.8232421875
  0
POINT
  5
1c3
100
AcDbEntity
100
AcDbPoint
  8
UPME_LineaTransmisionBogotaSplitNodoZ3D
420
     0
 10
4870357.09645836055278778
 20
2060414.51654240395873785
 30
2923.316650390625
  0
POINT
  5
1c4
100
AcDbEntity
100
AcDbPoint
  8
UPME_LineaTransmisionBogotaSplitNodoZ3D
420
     0
 10
4870442.90216160658746958
 20
2060655.88953623780980706
 30
2867.6640625
  0
POINT
  5
1c5
100
AcDbEntity
100
AcDbPoint
  8
UPME_LineaTransmisionBogotaSplitNodoZ3D
420
     0
 10
4870442.90216160658746958
 20
2060655.88953623780980706
 30
2867.6640625
  0
POINT
  5
1c6
100
AcDbEntity
100
AcDbPoint
  8
UPME_LineaTransmisionBogotaSplitNodoZ3D
420
     0
 10
4870576.88411841727793217
 20
2061032.78320194385014474
 30
2831.76220703125
  0
POINT
  5
1c7
100
AcDbEntity
100
AcDbPoint
  8
UPME_LineaTransmisionBogotaSplitNodoZ3D
420
     0
 10
4870576.88411841727793217
 20
2061032.78320194385014474
 30
2831.76220703125
  0
POINT
  5
1c8
100
AcDbEntity
100
AcDbPoint
  8
UPME_LineaTransmisionBogotaSplitNodoZ3D
420
     0
 10
4870659.48011966608464718
 20
2061265.12724605691619217
 30
2880.216796875
  0
POINT
  5
1c9
100
AcDbEntity
100
AcDbPoint
  8
UPME_LineaTransmisionBogotaSplitNodoZ3D
420
     0
 10
4870710.57178448885679245
 20
2061409.78114789561368525
 30
2889.87255859375
  0
POINT
  5
1ca
100
AcDbEntity
100
AcDbPoint
  8
UPME_LineaTransmisionBogotaSplitNodoZ3D
420
     0
 10
4870710.57178448885679245
 20
2061409.78114789561368525
 30
2889.87255859375
  0
POINT
  5
1cb
100
AcDbEntity
100
AcDbPoint
  8
UPME_LineaTransmisionBogotaSplitNodoZ3D
420
     0
 10
4870775.90489108394831419
 20
2061594.75630619050934911
 30
2892.042724609375
  0
POINT
  5
1cc
100
AcDbEntity
100
AcDbPoint
  8
UPME_LineaTransmisionBogotaSplitNodoZ3D
420
     0
 10
4870888.90477153938263655
 20
2061764.39144442044198513
 30
2864.59033203125
  0
POINT
  5
1cd
100
AcDbEntity
100
AcDbPoint
  8
UPME_LineaTransmisionBogotaSplitNodoZ3D
420
     0
 10
4870888.90477153938263655
 20
2061764.39144442044198513
 30
2864.59033203125
  0
POINT
  5
1ce
100
AcDbEntity
100
AcDbPoint
  8
UPME_LineaTransmisionBogotaSplitNodoZ3D
420
     0
 10
4870930.62864029314368963
 20
2061827.02721195458434522
 30
2855.15576171875
  0
POINT
  5
1cf
100
AcDbEntity
100
AcDbPoint
  8
UPME_LineaTransmisionBogotaSplitNodoZ3D
420
     0
 10
4871109.8581576831638813
 20
2062097.82717320555821061
 30
2796.903076171875
  0
POINT
  5
1d0
100
AcDbEntity
100
AcDbPoint
  8
UPME_LineaTransmisionBogotaSplitNodoZ3D
420
     0
 10
4871109.8581576831638813
 20
2062097.82717320555821061
 30
2796.903076171875
  0
POINT
  5
1d1
100
AcDbEntity
100
AcDbPoint
  8
UPME_LineaTransmisionBogotaSplitNodoZ3D
420
     0
 10
4871280.62790614832192659
 20
2062355.84517124854028225
 30
2766.63916015625
  0
POINT
  5
1d2
100
AcDbEntity
100
AcDbPoint
  8
UPME_LineaTransmisionBogotaSplitNodoZ3D
420
     0
 10
4871317.50582180079072714
 20
2062438.58730761078186333
 30
2738.532958984375
  0
POINT
  5
1d3
100
AcDbEntity
100
AcDbPoint
  8
UPME_LineaTransmisionBogotaSplitNodoZ3D
420
     0
 10
4871317.50582180079072714
 20
2062438.58730761078186333
 30
2738.532958984375
  0
POINT
  5
1d4
100
AcDbEntity
100
AcDbPoint
  8
UPME_LineaTransmisionBogotaSplitNodoZ3D
420
     0
 10
4871480.343238296918571
 20
2062803.94189672754146159
 30
2697.34326171875
  0
POINT
  5
1d5
100
AcDbEntity
100
AcDbPoint
  8
UPME_LineaTransmisionBogotaSplitNodoZ3D
420
     0
 10
4871480.343238296918571
 20
2062803.94189672754146159
 30
2697.34326171875
  0
POINT
  5
1d6
100
AcDbEntity
100
AcDbPoint
  8
UPME_LineaTransmisionBogotaSplitNodoZ3D
420
     0
 10
4871550.44498184137046337
 20
2062961.22757627163082361
 30
2703.09521484375
  0
POINT
  5
1d7
100
AcDbEntity
100
AcDbPoint
  8
UPME_LineaTransmisionBogotaSplitNodoZ3D
420
     0
 10
4871643.26034204941242933
 20
2063168.44711415376514196
 30
2685.19580078125
  0
POINT
  5
1d8
100
AcDbEntity
100
AcDbPoint
  8
UPME_LineaTransmisionBogotaSplitNodoZ3D
420
     0
 10
4871643.561232915148139
 20
2063169.12643879698589444
 30
2685.19580078125
  0
POINT
  5
1d9
100
AcDbEntity
100
AcDbPoint
  8
UPME_LineaTransmisionBogotaSplitNodoZ3D
420
     0
 10
4871643.561232915148139
 20
2063169.12643879698589444
 30
2685.19580078125
  0
POINT
  5
1da
100
AcDbEntity
100
AcDbPoint
  8
UPME_LineaTransmisionBogotaSplitNodoZ3D
420
     0
 10
4871710.82113814353942871
 20
2063320.97987232892774045
 30
2662.742431640625
  0
POINT
  5
1db
100
AcDbEntity
100
AcDbPoint
  8
UPME_LineaTransmisionBogotaSplitNodoZ3D
420
     0
 10
4871892.00115444511175156
 20
2063468.93679227563552558
 30
2593.597900390625
  0
POINT
  5
1dc
100
AcDbEntity
100
AcDbPoint
  8
UPME_LineaTransmisionBogotaSplitNodoZ3D
420
     0
 10
4871892.00115444511175156
 20
2063468.93679227563552558
 30
2593.597900390625
  0
POINT
  5
1dd
100
AcDbEntity
100
AcDbPoint
  8
UPME_LineaTransmisionBogotaSplitNodoZ3D
420
     0
 10
4872187.57210000045597553
 20
2063710.30870305700227618
 30
2567.92529296875
  0
POINT
  5
1de
100
AcDbEntity
100
AcDbPoint
  8
UPME_LineaTransmisionBogotaSplitNodoZ3D
420
     0
 10
4872203.82269927579909563
 20
2063718.92752333404496312
 30
2566.65087890625
  0
POINT
  5
1df
100
AcDbEntity
100
AcDbPoint
  8
UPME_LineaTransmisionBogotaSplitNodoZ3D
420
     0
 10
4872203.82269927579909563
 20
2063718.92752333404496312
 30
2566.65087890625
  0
POINT
  5
1e0
100
AcDbEntity
100
AcDbPoint
  8
UPME_LineaTransmisionBogotaSplitNodoZ3D
420
     0
 10
4872361.0055135041475296
 20
2063802.29247520654462278
 30
2565.052734375
  0
POINT
  5
1e1
100
AcDbEntity
100
AcDbPoint
  8
UPME_LineaTransmisionBogotaSplitNodoZ3D
420
     0
 10
4872528.18459662701934576
 20
2063809.79593475256115198
 30
2562.4609375
  0
POINT
  5
1e2
100
AcDbEntity
100
AcDbPoint
  8
UPME_LineaTransmisionBogotaSplitNodoZ3D
420
     0
 10
4872578.48949091136455536
 20
2063788.23476441996172071
 30
2558.961181640625
  0
POINT
  5
1e3
100
AcDbEntity
100
AcDbPoint
  8
UPME_LineaTransmisionBogotaSplitNodoZ3D
420
     0
 10
4872578.48949091136455536
 20
2063788.23476441996172071
 30
2558.961181640625
  0
POINT
  5
1e4
100
AcDbEntity
100
AcDbPoint
  8
UPME_LineaTransmisionBogotaSplitNodoZ3D
420
     0
 10
4872937.67375646531581879
 20
2063634.28487066412344575
 30
2555.759033203125
  0
POINT
  5
1e5
100
AcDbEntity
100
AcDbPoint
  8
UPME_LineaTransmisionBogotaSplitNodoZ3D
420
     0
 10
4872946.83416187856346369
 20
2063633.29499691678211093
 30
2555.759033203125
  0
POINT
  5
1e6
100
AcDbEntity
100
AcDbPoint
  8
UPME_LineaTransmisionBogotaSplitNodoZ3D
420
     0
 10
4872946.83416187856346369
 20
2063633.29499691678211093
 30
2555.759033203125
  0
POINT
  5
1e7
100
AcDbEntity
100
AcDbPoint
  8
UPME_LineaTransmisionBogotaSplitNodoZ3D
420
     0
 10
4873344.51902330201119184
 20
2063590.32115609967149794
 30
2559.88623046875
  0
POINT
  5
1e8
100
AcDbEntity
100
AcDbPoint
  8
UPME_LineaTransmisionBogotaSplitNodoZ3D
420
     0
 10
4873344.51902330201119184
 20
2063590.32115609967149794
 30
2559.88623046875
  0
POINT
  5
1e9
100
AcDbEntity
100
AcDbPoint
  8
UPME_LineaTransmisionBogotaSplitNodoZ3D
420
     0
 10
4873350.35776085499674082
 20
2063589.69022190407849848
 30
2559.88623046875
  0
POINT
  5
1ea
100
AcDbEntity
100
AcDbPoint
  8
UPME_LineaTransmisionBogotaSplitNodoZ3D
420
     0
 10
4873382.45058788545429707
 20
2063591.46938156965188682
 30
2557.302978515625
  0
POINT
  5
1eb
100
AcDbEntity
100
AcDbPoint
  8
UPME_LineaTransmisionBogotaSplitNodoZ3D
420
     0
 10
4873435.73988859355449677
 20
2063557.03620361513458192
 30
2558.116455078125
  0
POINT
  5
1ec
100
AcDbEntity
100
AcDbPoint
  8
UPME_LineaTransmisionBogotaSplitNodoZ3D
420
     0
 10
4873461.5965142035856843
 20
2063534.44754061312414706
 30
2559.24755859375
  0
ENDSEC
0
SECTION
2
OBJECTS
0
DICTIONARY
5
C
330
0
100
AcDbDictionary
281
   1
3
ACAD_GROUP
350
D
3
ACAD_LAYOUT
350
1A
3
ACAD_MLEADERSTYLE
350
43
3
ACAD_MLINESTYLE
350
17
3
ACAD_PLOTSETTINGS
350
19
3
ACAD_PLOTSTYLENAME
350
E
3
ACAD_TABLESTYLE
350
42
3
ACAD_VISUALSTYLE
350
2A
0
DICTIONARY
5
D
102
{ACAD_REACTORS
330
C
102
}
330
C
100
AcDbDictionary
281
   1
0
DICTIONARY
5
1A
102
{ACAD_REACTORS
330
C
102
}
330
C
100
AcDbDictionary
281
   1
3
Layout1
350
1E
3
Layout2
350
26
3
Model
350
22
0
DICTIONARY
5
43
102
{ACAD_REACTORS
330
C
102
}
330
C
100
AcDbDictionary
281
   1
0
DICTIONARY
5
17
102
{ACAD_REACTORS
330
C
102
}
330
C
100
AcDbDictionary
281
   1
3
Standard
350
18
0
DICTIONARY
5
19
102
{ACAD_REACTORS
330
C
102
}
330
C
100
AcDbDictionary
281
   1
0
ACDBDICTIONARYWDFLT
5
E
102
{ACAD_REACTORS
330
C
102
}
330
C
100
AcDbDictionary
281
   1
3
Normal
350
F
100
AcDbDictionaryWithDefault
340
F
0
DICTIONARY
5
42
102
{ACAD_REACTORS
330
C
102
}
330
C
100
AcDbDictionary
281
   1
0
DICTIONARY
5
2A
102
{ACAD_REACTORS
330
C
102
}
330
C
100
AcDbDictionary
281
   1
3
2dWireframe
350
2F
3
3D Hidden
350
31
3
3dWireframe
350
30
3
Basic
350
32
3
Brighten
350
36
3
ColorChange
350
3A
3
Conceptual
350
34
3
Dim
350
35
3
Facepattern
350
39
3
Flat
350
2B
3
FlatWithEdges
350
2C
3
Gouraud
350
2D
3
GouraudWithEdges
350
2E
3
Linepattern
350
38
3
Realistic
350
33
3
Thicken
350
37
0
LAYOUT
5
1E
102
{ACAD_REACTORS
330
1A
102
}
330
1A
100
AcDbPlotSettings
1

2
none_device
4

6

40
0.0
41
0.0
42
0.0
43
0.0
44
0.0
45
0.0
46
0.0
47
0.0
48
0.0
49
0.0
140
0.0
141
0.0
142
1.0
143
1.0
70
 688
72
   0
73
   0
74
   5
7

75
  16
76
   0
77
   2
78
 300
147
1.0
148
0.0
149
0.0
100
AcDbLayout
1
Layout1
70
   1
71
   1
10
0.0
20
0.0
11
12.0
21
9.0
12
0.0
22
0.0
32
0.0
14
1.000000000000000E+20
24
1.000000000000000E+20
34
1.000000000000000E+20
15
-1.000000000000000E+20
25
-1.000000000000000E+20
35
-1.000000000000000E+20
146
0.0
13
0.0
23
0.0
33
0.0
16
1.0
26
0.0
36
0.0
17
0.0
27
1.0
37
0.0
76
   0
330
1B
0
LAYOUT
5
26
102
{ACAD_REACTORS
330
1A
102
}
330
1A
100
AcDbPlotSettings
1

2
none_device
4

6

40
0.0
41
0.0
42
0.0
43
0.0
44
0.0
45
0.0
46
0.0
47
0.0
48
0.0
49
0.0
140
0.0
141
0.0
142
1.0
143
1.0
70
 688
72
   0
73
   0
74
   5
7

75
  16
76
   0
77
   2
78
 300
147
1.0
148
0.0
149
0.0
100
AcDbLayout
1
Layout2
70
   1
71
   2
10
0.0
20
0.0
11
0.0
21
0.0
12
0.0
22
0.0
32
0.0
14
0.0
24
0.0
34
0.0
15
0.0
25
0.0
35
0.0
146
0.0
13
0.0
23
0.0
33
0.0
16
1.0
26
0.0
36
0.0
17
0.0
27
1.0
37
0.0
76
   0
330
23
0
LAYOUT
5
22
102
{ACAD_REACTORS
330
1A
102
}
330
1A
100
AcDbPlotSettings
1

2
none_device
4

6

40
0.0
41
0.0
42
0.0
43
0.0
44
0.0
45
0.0
46
0.0
47
0.0
48
0.0
49
0.0
140
0.0
141
0.0
142
1.0
143
1.0
70
1712
72
   0
73
   0
74
   0
7

75
   0
76
   0
77
   2
78
 300
147
1.0
148
0.0
149
0.0
100
AcDbLayout
1
Model
70
   1
71
   0
10
0.0
20
0.0
11
12.0
21
9.0
12
0.0
22
0.0
32
0.0
14
30.0
24
49.75
34
0.0
15
130.5
25
163.1318914119703
35
0.0
146
0.0
13
0.0
23
0.0
33
0.0
16
1.0
26
0.0
36
0.0
17
0.0
27
1.0
37
0.0
76
   0
330
1F
331
29
0
MLINESTYLE
5
18
102
{ACAD_REACTORS
330
17
102
}
330
17
100
AcDbMlineStyle
2
Standard
70
   0
3

62
 256
51
90.0
52
90.0
71
   2
49
0.5
62
 256
6
BYLAYER
49
-0.5
62
 256
6
BYLAYER
0
ACDBPLACEHOLDER
5
F
102
{ACAD_REACTORS
330
E
102
}
330
E
0
VISUALSTYLE
5
2F
102
{ACAD_REACTORS
330
2A
102
}
330
2A
100
AcDbVisualStyle
2
2dWireframe
70
   4
71
   0
72
   2
73
   0
90
      0
40
-0.6
41
-30.0
62
   5
63
   7
421
16777215
74
   1
91
      4
64
   7
65
 257
75
   1
175
   1
42
1.0
92
      0
66
 257
43
1.0
76
   1
77
   6
78
   2
67
   7
79
   5
170
   0
171
   0
290
   0
174
   0
93
      1
44
0.0
173
   0
291
   0
45
0.0
1001
ACAD
1000
AcDbSavedByObjectVersion
1070
   0
0
VISUALSTYLE
5
31
102
{ACAD_REACTORS
330
2A
102
}
330
2A
100
AcDbVisualStyle
2
3D Hidden
70
   6
71
   1
72
   2
73
   2
90
      0
40
-0.6
41
-30.0
62
   5
63
   7
421
16777215
74
   2
91
      2
64
   7
65
 257
75
   2
175
   1
42
40.0
92
      0
66
 257
43
1.0
76
   1
77
   6
78
   2
67
   7
79
   3
170
   0
171
   0
290
   0
174
   0
93
      1
44
0.0
173
   0
291
   0
45
0.0
1001
ACAD
1000
AcDbSavedByObjectVersion
1070
   0
0
VISUALSTYLE
5
30
102
{ACAD_REACTORS
330
2A
102
}
330
2A
100
AcDbVisualStyle
2
3dWireframe
70
   5
71
   0
72
   2
73
   0
90
      0
40
-0.6
41
-30.0
62
   5
63
   7
421
16777215
74
   1
91
      4
64
   7
65
 257
75
   1
175
   1
42
1.0
92
      0
66
 257
43
1.0
76
   1
77
   6
78
   2
67
   7
79
   5
170
   0
171
   0
290
   0
174
   0
93
      1
44
0.0
173
   0
291
   0
45
0.0
1001
ACAD
1000
AcDbSavedByObjectVersion
1070
   0
0
VISUALSTYLE
5
32
102
{ACAD_REACTORS
330
2A
102
}
330
2A
100
AcDbVisualStyle
2
Basic
70
   7
71
   1
72
   0
73
   1
90
      0
40
-0.6
41
-30.0
62
   5
63
   7
421
16777215
74
   0
91
      4
64
   7
65
 257
75
   1
175
   1
42
1.0
92
      8
66
   7
43
1.0
76
   1
77
   6
78
   2
67
   7
79
   5
170
   0
171
   0
290
   0
174
   0
93
      1
44
0.0
173
   0
291
   1
45
0.0
1001
ACAD
1000
AcDbSavedByObjectVersion
1070
   0
0
VISUALSTYLE
5
36
102
{ACAD_REACTORS
330
2A
102
}
330
2A
100
AcDbVisualStyle
2
Brighten
70
  12
71
   2
72
   2
73
   0
90
      0
40
-0.6
41
-30.0
62
   5
63
   7
421
16777215
74
   1
91
      4
64
   7
65
 257
75
   1
175
   1
42
1.0
92
      8
66
   7
43
1.0
76
   1
77
   6
78
   2
67
   7
79
   5
170
   0
171
   0
290
   0
174
   0
93
      1
44
50.0
173
   0
291
   1
45
0.0
1001
ACAD
1000
AcDbSavedByObjectVersion
1070
   0
0
VISUALSTYLE
5
3A
102
{ACAD_REACTORS
330
2A
102
}
330
2A
100
AcDbVisualStyle
2
ColorChange
70
  16
71
   2
72
   2
73
   3
90
      0
40
-0.6
41
-30.0
62
   5
63
   8
421
8421504
74
   1
91
      4
64
   7
65
 257
75
   1
175
   1
42
1.0
92
      8
66
   8
424
8421504
43
1.0
76
   1
77
   6
78
   2
67
   7
79
   5
170
   0
171
   0
290
   0
174
   0
93
      1
44
0.0
173
   0
291
   1
45
0.0
1001
ACAD
1000
AcDbSavedByObjectVersion
1070
   0
0
VISUALSTYLE
5
34
102
{ACAD_REACTORS
330
2A
102
}
330
2A
100
AcDbVisualStyle
2
Conceptual
70
   9
71
   3
72
   2
73
   0
90
      0
40
-0.6
41
-30.0
62
   5
63
   7
421
16777215
74
   2
91
      2
64
   7
65
 257
75
   1
175
   1
42
40.0
92
      8
66
   7
43
1.0
76
   1
77
   6
78
   2
67
   7
79
   3
170
   0
171
   0
290
   0
174
   0
93
      1
44
0.0
173
   0
291
   0
45
0.0
1001
ACAD
1000
AcDbSavedByObjectVersion
1070
   0
0
VISUALSTYLE
5
35
102
{ACAD_REACTORS
330
2A
102
}
330
2A
100
AcDbVisualStyle
2
Dim
70
  11
71
   2
72
   2
73
   0
90
      0
40
-0.6
41
-30.0
62
   5
63
   7
421
16777215
74
   1
91
      4
64
   7
65
 257
75
   1
175
   1
42
1.0
92
      8
66
   7
43
1.0
76
   1
77
   6
78
   2
67
   7
79
   5
170
   0
171
   0
290
   0
174
   0
93
      1
44
-50.0
173
   0
291
   1
45
0.0
1001
ACAD
1000
AcDbSavedByObjectVersion
1070
   0
0
VISUALSTYLE
5
39
102
{ACAD_REACTORS
330
2A
102
}
330
2A
100
AcDbVisualStyle
2
Facepattern
70
  15
71
   2
72
   2
73
   0
90
      0
40
-0.6
41
-30.0
62
   5
63
   7
421
16777215
74
   1
91
      4
64
   7
65
 257
75
   1
175
   1
42
1.0
92
      8
66
   7
43
1.0
76
   1
77
   6
78
   2
67
   7
79
   5
170
   0
171
   0
290
   0
174
   0
93
      1
44
0.0
173
   0
291
   1
45
0.0
1001
ACAD
1000
AcDbSavedByObjectVersion
1070
   0
0
VISUALSTYLE
5
2B
102
{ACAD_REACTORS
330
2A
102
}
330
2A
100
AcDbVisualStyle
2
Flat
70
   0
71
   2
72
   1
73
   1
90
      2
40
-0.6
41
30.0
62
   5
63
   7
421
16777215
74
   0
91
      4
64
   7
65
 257
75
   1
175
   1
42
1.0
92
      8
66
   7
43
1.0
76
   1
77
   6
78
   2
67
   7
79
   5
170
   0
171
   0
290
   0
174
   0
93
     13
44
0.0
173
   0
291
   1
45
0.0
1001
ACAD
1000
AcDbSavedByObjectVersion
1070
   0
0
VISUALSTYLE
5
2C
102
{ACAD_REACTORS
330
2A
102
}
330
2A
100
AcDbVisualStyle
2
FlatWithEdges
70
   1
71
   2
72
   1
73
   1
90
      2
40
-0.6
41
30.0
62
   5
63
   7
421
16777215
74
   1
91
      4
64
   7
65
 257
75
   1
175
   1
42
1.0
92
      0
66
 257
43
1.0
76
   1
77
   6
78
   2
67
   7
79
   5
170
   0
171
   0
290
   0
174
   0
93
     13
44
0.0
173
   0
291
   1
45
0.0
1001
ACAD
1000
AcDbSavedByObjectVersion
1070
   0
0
VISUALSTYLE
5
2D
102
{ACAD_REACTORS
330
2A
102
}
330
2A
100
AcDbVisualStyle
2
Gouraud
70
   2
71
   2
72
   2
73
   1
90
      2
40
-0.6
41
30.0
62
   5
63
   7
421
16777215
74
   0
91
      4
64
   7
65
 257
75
   1
175
   1
42
1.0
92
      0
66
   7
43
1.0
76
   1
77
   6
78
   2
67
   7
79
   5
170
   0
171
   0
290
   0
174
   0
93
     13
44
0.0
173
   0
291
   1
45
0.0
1001
ACAD
1000
AcDbSavedByObjectVersion
1070
   0
0
VISUALSTYLE
5
2E
102
{ACAD_REACTORS
330
2A
102
}
330
2A
100
AcDbVisualStyle
2
GouraudWithEdges
70
   3
71
   2
72
   2
73
   1
90
      2
40
-0.6
41
30.0
62
   5
63
   7
421
16777215
74
   1
91
      4
64
   7
65
 257
75
   1
175
   1
42
1.0
92
      0
66
 257
43
1.0
76
   1
77
   6
78
   2
67
   7
79
   5
170
   0
171
   0
290
   0
174
   0
93
     13
44
0.0
173
   0
291
   1
45
0.0
1001
ACAD
1000
AcDbSavedByObjectVersion
1070
   0
0
VISUALSTYLE
5
38
102
{ACAD_REACTORS
330
2A
102
}
330
2A
100
AcDbVisualStyle
2
Linepattern
70
  14
71
   2
72
   2
73
   0
90
      0
40
-0.6
41
-30.0
62
   5
63
   7
421
16777215
74
   1
91
      4
64
   7
65
 257
75
   7
175
   7
42
1.0
92
      8
66
   7
43
1.0
76
   1
77
   6
78
   2
67
   7
79
   5
170
   0
171
   0
290
   0
174
   0
93
      1
44
0.0
173
   0
291
   1
45
0.0
1001
ACAD
1000
AcDbSavedByObjectVersion
1070
   0
0
VISUALSTYLE
5
33
102
{ACAD_REACTORS
330
2A
102
}
330
2A
100
AcDbVisualStyle
2
Realistic
70
   8
71
   2
72
   2
73
   0
90
      0
40
-0.6
41
-30.0
62
   5
63
   7
421
16777215
74
   1
91
      0
64
   7
65
 257
75
   1
175
   1
42
1.0
92
      8
66
   8
424
7895160
43
1.0
76
   1
77
   6
78
   2
67
   7
79
   5
170
   0
171
   0
290
   0
174
   0
93
     13
44
0.0
173
   0
291
   0
45
0.0
1001
ACAD
1000
AcDbSavedByObjectVersion
1070
   0
0
VISUALSTYLE
5
37
102
{ACAD_REACTORS
330
2A
102
}
330
2A
100
AcDbVisualStyle
2
Thicken
70
  13
71
   2
72
   2
73
   0
90
      0
40
-0.6
41
-30.0
62
   5
63
   7
421
16777215
74
   1
91
      4
64
   7
65
 257
75
   1
175
   1
42
1.0
92
     12
66
   7
43
1.0
76
   1
77
   6
78
   2
67
   7
79
   5
170
   0
171
   0
290
   0
174
   0
93
      1
44
0.0
173
   0
291
   1
45
0.0
1001
ACAD
1000
AcDbSavedByObjectVersion
1070
   0
0
ENDSEC
  0
EOF
